<?xml version="1.0" standalone="no"?>
<!DOCTYPE svg PUBLIC "-//W3C//DTD SVG 1.1//EN" "http://www.w3.org/Graphics/SVG/1.1/DTD/svg11.dtd" >
<svg xmlns="http://www.w3.org/2000/svg">
<metadata></metadata>
<defs>
<font id="unicod_sansbold" horiz-adv-x="1228" >
<font-face units-per-em="2048" ascent="1536" descent="-512" />
<missing-glyph horiz-adv-x="696" />
<glyph unicode="&#xfb01;" horiz-adv-x="1339" d="M125 63v1244q0 85 61 150t162 65h404q31 0 51 -19t20 -45v-143q0 -28 -21.5 -46t-49.5 -18h-285q-6 0 -10 -7t-4 -15v-266h229q32 0 53 -19t21 -43v-145q0 -26 -23 -44t-51 -18h-229v-631q0 -28 -23 -45.5t-51 -17.5h-182q-31 0 -51.5 18.5t-20.5 44.5zM930 66v995 q0 28 23 46.5t53 18.5h186q32 0 54 -20t22 -45v-995q0 -26 -22.5 -46t-53.5 -20h-186q-31 0 -53.5 18t-22.5 48zM930 1284v174q0 25 22 44.5t54 19.5h188q33 0 54.5 -19t21.5 -45v-174q0 -25 -24 -44t-52 -19h-188q-30 0 -53 18.5t-23 44.5z" />
<glyph unicode="&#xfb02;" horiz-adv-x="1404" d="M125 61v1244q0 85 61 150t162 65h764q28 0 51 -18t23 -46v-1149q0 -26 16 -26h78q33 0 53.5 -19t20.5 -45v-156q0 -28 -23 -45.5t-51 -17.5h-197q-107 0 -166 60t-59 159v1032h-391q-6 0 -10 -7t-4 -15v-266h229q32 0 53 -19t21 -43v-145q0 -26 -23 -44t-51 -18h-229 v-631q0 -28 -23 -45.5t-51 -17.5h-182q-31 0 -51.5 18.5t-20.5 44.5z" />
<glyph unicode="&#xfb03;" horiz-adv-x="2164" d="M125 63v1244q0 85 61 150t162 65h1151q44 0 72 -27.5t28 -64.5v-87q0 -40 -30.5 -66t-69.5 -26h-258q-10 0 -14 -22v-266h227q32 0 53 -19t21 -43v-145q0 -26 -23 -44t-51 -18h-229q0 -79 -1 -316t-1 -315q0 -28 -23 -45.5t-51 -17.5h-184q-31 0 -51.5 18.5t-20.5 44.5 l4 1188h-430q-6 0 -10 -7t-4 -15v-266h229q32 0 53 -19t21 -43v-145q0 -26 -23 -44t-51 -18h-229v-631q0 -28 -23 -45.5t-51 -17.5h-182q-31 0 -51.5 18.5t-20.5 44.5zM1704 66v995q0 28 23 46.5t53 18.5h186q32 0 54 -20t22 -45v-995q0 -26 -22.5 -46t-53.5 -20h-186 q-31 0 -53.5 18t-22.5 48zM1704 1284v174q0 25 22 44.5t54 19.5h188q33 0 54.5 -19t21.5 -45v-174q0 -25 -24 -44t-52 -19h-188q-30 0 -53 18.5t-23 44.5z" />
<glyph unicode="&#xfb04;" horiz-adv-x="2142" d="M125 63v1244q0 85 61 150t162 65h1499q28 0 51 -18t23 -46v-1149q0 -26 16 -26h78q33 0 53.5 -19t20.5 -45v-156q0 -28 -23 -45.5t-51 -17.5h-196q-107 0 -166.5 60t-59.5 159v1030h-389q-6 0 -10 -7t-4 -15v-264h229q32 0 53 -19t21 -43v-145q0 -26 -23 -44t-51 -18 h-229v-631q0 -28 -23 -45.5t-51 -17.5h-184q-31 0 -51.5 18.5t-20.5 44.5v1188h-393q-6 0 -10 -7t-4 -15v-266h229q32 0 53 -19t21 -43v-145q0 -26 -23 -44t-51 -18h-229v-631q0 -28 -23 -45.5t-51 -17.5h-182q-31 0 -51.5 18.5t-20.5 44.5z" />
<glyph horiz-adv-x="2048" />
<glyph horiz-adv-x="2048" />
<glyph unicode="&#xd;" horiz-adv-x="2048" />
<glyph unicode=" "  horiz-adv-x="696" />
<glyph unicode="&#x09;" horiz-adv-x="696" />
<glyph unicode="&#xa0;" horiz-adv-x="696" />
<glyph unicode="!" horiz-adv-x="544" d="M104 1458q0 26 20.5 45t53.5 19h189q28 0 50.5 -18t22.5 -46l-39 -995q0 -28 -22.5 -46t-50.5 -18h-111q-33 0 -53.5 19t-20.5 45q0 27 -20 498q-19 357 -19 497zM123 61q0 -24 16 -42.5t39 -18.5h189q24 0 39.5 18.5t15.5 42.5v179q0 28 -16.5 45.5t-38.5 17.5h-189 q-23 0 -39 -17.5t-16 -45.5v-179z" />
<glyph unicode="&#x22;" horiz-adv-x="919" d="M104 1454q0 29 23 48.5t51 19.5h170q32 0 53 -21t21 -47l-41 -442q-2 -26 -22.5 -45t-51.5 -19h-92q-31 0 -52.5 17t-21.5 47zM485 1454q0 29 23 48.5t51 19.5h170q32 0 53 -21t21 -47l-41 -442q-2 -26 -22.5 -45t-51.5 -19h-92q-31 0 -52.5 17t-21.5 47z" />
<glyph unicode="#" horiz-adv-x="1564" d="M117 791l28 63q30 66 105 66h160l14 47l14 63h-129q-57 0 -84 21.5t-14 76.5l25 64q35 76 106 76h156l14 47q4 13 17.5 61.5t19.5 73.5q7 34 38 53t64 19h105q61 0 85 -34.5t9 -78.5l-39 -141h115q4 20 8 30q28 95 41 152q8 34 39.5 53t64.5 19h105q62 0 86.5 -34.5 t5.5 -74.5l-19 -74q-12 -40 -18 -71h111q56 0 83 -33.5t7 -79.5l-25 -53h2q-10 -33 -43 -52.5t-63 -19.5h-131l-29 -110h104q56 0 84 -33.5t9 -79.5l-25 -55q-11 -30 -45 -50t-64 -20h-127q-33 -131 -49 -211q-8 -28 -39.5 -52t-66.5 -24h-107q-52 0 -80.5 32.5t-11.5 78.5 q10 42 25 94l20 82h-119q-1 -3 -14.5 -59.5t-19.5 -85.5q-8 -30 -15 -66q-8 -28 -39.5 -52t-66.5 -24h-107q-52 0 -80.5 32.5t-11.5 78.5q0 3 2 9t2 9l43 158h-137q-52 0 -80.5 26.5t-17.5 82.5zM723 920h113l28 110h-112q-10 -44 -29 -110z" />
<glyph unicode="$" horiz-adv-x="1167" d="M82 1032v236q0 63 23.5 113t62.5 80t86 45.5t98 15.5h117v151q0 28 23 47t51 19h157q33 0 54.5 -20t21.5 -46v-151h201q32 0 54 -21t22 -47l2 -145q0 -28 -23.5 -47t-52.5 -19h-545q-12 0 -17 -7t-5 -26v-178q0 -48 14 -51l473 -190q52 -21 88.5 -53t55 -62t28.5 -72 t12 -68.5t2 -66.5v-197q0 -121 -93.5 -195.5t-215.5 -76.5v-164q0 -26 -21.5 -45.5t-54.5 -19.5h-157q-28 0 -51 18t-23 47v164h-297q-34 0 -56 20.5t-22 47.5v145q0 29 23 47.5t55 18.5h565q17 0 17 24v158q0 47 -23 57l-446 187q-66 27 -109.5 67t-62.5 88t-25 86t-6 86z " />
<glyph unicode="%" horiz-adv-x="1863" d="M123 881v452q0 78 58 133.5t136 55.5h197q72 0 135.5 -60.5t63.5 -130.5v-450q0 -73 -51 -128t-138 -55h-209q-90 0 -141 55t-51 128zM356 887h121v442h-117v-434q0 -8 -4 -8zM475 88h2q-13 -39 1.5 -63.5t43.5 -24.5h86q22 0 45.5 19.5t34.5 43.5l696 1373h-2 q15 32 2.5 59t-47.5 27h-84q-18 0 -27 -1.5t-20 -9.5t-20 -26zM1151 182v453q0 77 58 132.5t137 55.5h196q72 0 135.5 -60t63.5 -130v-451q0 -73 -51 -127.5t-138 -54.5h-209q-90 0 -141 54.5t-51 127.5zM1384 188h121v443h-116v-434q0 -9 -5 -9z" />
<glyph unicode="&#x26;" horiz-adv-x="1495" d="M102 283v108q0 39 1 60t9 58.5t23 65t46 64t75 70.5l113 77q-3 3 -45.5 39t-59.5 52q-40 43 -63 78t-33 70.5t-12 59t-2 68.5v135q0 80 43 139q34 44 87 68.5t109 26.5h422q57 -2 111.5 -28.5t89.5 -70.5q45 -62 45 -139l2 -135q0 -73 -33.5 -151.5t-111.5 -147.5 l-66 -55l-47 -41h2l111 -129l83 -99l64 78q15 17 30 24t48 7h190q22 0 34.5 -1.5t28.5 -8t13.5 -24.5t-23.5 -46l-206 -256l94 -123l65 -86q26 -37 7 -63.5t-50 -26.5h-194q-60 0 -92 41l-29 35q-52 -42 -103 -59t-116 -17h-369q-66 2 -131 32.5t-106 80.5q-54 69 -54 170z M424 287q0 -17 6 -17h369q4 0 18 11h-2q-44 51 -131 149.5t-131 149.5l-113 -103q-16 -14 -16 -65v-125zM477 1139q0 -51 15 -66l114 -127l119 117q12 12 12 76v108q0 13 -6 13h-248q-1 0 -3.5 -5t-2.5 -8v-108z" />
<glyph unicode="'" horiz-adv-x="481" d="M74 1454q0 29 22.5 48.5t50.5 19.5h170q32 0 53 -21t21 -47l-41 -442q-2 -26 -22.5 -45t-51.5 -19h-92q-31 0 -52 17t-21 47z" />
<glyph unicode="(" horiz-adv-x="792" d="M154 545v22q0 242 83.5 496.5t211.5 413.5q25 29 45.5 37t62.5 8h111q34 0 52.5 -18t18.5 -44q0 -21 -12 -39q-84 -123 -166 -385.5t-82 -468.5v-22q0 -205 80 -460.5t164 -383.5q14 -35 14 -41q0 -25 -19 -43t-54 -18h-117q-41 0 -62 8.5t-43 38.5q-128 156 -208 405 t-80 494z" />
<glyph unicode=")" horiz-adv-x="792" d="M53 1460q0 26 18 44t54 18h111q42 0 62.5 -8t45.5 -37q128 -159 211.5 -413.5t83.5 -496.5v-22q0 -245 -80.5 -494t-208.5 -405q-23 -30 -43 -38.5t-61 -8.5h-117q-35 0 -54.5 18t-19.5 43q0 3 15 41q84 128 163.5 383t79.5 461v22q0 206 -81.5 468.5t-165.5 385.5 q-13 19 -13 39z" />
<glyph unicode="*" horiz-adv-x="937" d="M80.5 1031.5q9.5 28.5 36.5 41.5q20 11 65.5 30t69.5 32h2l-137 65q-29 19 -35.5 46t6.5 44h-2q13 20 25 43l24 43h-2q10 21 49 30t64 -3l108 -84q0 22 -4 71.5t-4 79.5q0 23 22.5 45.5t55.5 22.5h98q26 0 52 -19.5t26 -48.5l-8 -145q8 6 47 34.5t57 43.5q22 17 58 12.5 t53 -35.5l53 -98q8 -20 -4.5 -43.5t-38.5 -38.5l-125 -63q19 -8 61.5 -29t63.5 -31q32 -16 41.5 -46.5t-4.5 -55.5l-51 -88q-34 -56 -98 -23q-18 10 -35.5 23t-42 32t-35.5 27q0 -21 4 -68.5t4 -76.5t-26 -48.5t-52 -19.5h-98q-35 0 -56.5 18.5t-21.5 49.5l8 149l-90 -69 q-77 -44 -114 6q-16 19 -39 57l-11 14l-16 25q-13 20 -3.5 48.5z" />
<glyph unicode="+" horiz-adv-x="1044" d="M92 592v143q0 25 21 44.5t53 19.5h211v219q0 24 22 43.5t52 19.5h145q28 0 51 -17.5t23 -45.5v-219h209q32 0 52.5 -19.5t20.5 -44.5v-143q0 -28 -22.5 -46t-50.5 -18h-209v-221q0 -28 -23 -45.5t-51 -17.5h-145q-30 0 -52 19.5t-22 43.5v221h-211q-28 0 -51 18t-23 46z " />
<glyph unicode="," horiz-adv-x="667" d="M102 -51q13 33 64 160t76 194q21 51 94 51h162q43 0 61 -27t2 -59l-170 -321q-15 -28 -45.5 -46t-62.5 -18h-125q-34 0 -49.5 20t-6.5 46z" />
<glyph unicode="-" horiz-adv-x="968" d="M113 502v155q0 25 20.5 43.5t52.5 18.5h598q31 0 51.5 -19t20.5 -43v-155q0 -28 -22 -46t-50 -18h-598q-30 0 -51.5 18t-21.5 46z" />
<glyph unicode="." horiz-adv-x="565" d="M113 63v199q0 24 21.5 43t53.5 19h189q31 0 53.5 -19t22.5 -43v-199q0 -28 -23 -45.5t-53 -17.5h-189q-31 0 -53 17.5t-22 45.5z" />
<glyph unicode="/" horiz-adv-x="899" d="M39 78l493 1390q12 28 42 41t61 13h166q40 0 56.5 -24t6.5 -54l-502 -1389q-21 -55 -100 -55h-160q-32 0 -53.5 23.5t-9.5 54.5z" />
<glyph unicode="0" d="M123 332v858q0 85 39 159.5t119 123.5t184 49h256q156 0 249 -99.5t93 -232.5v-858q0 -133 -93 -232.5t-249 -99.5h-256q-104 0 -184 49t-119 123.5t-39 159.5zM451 307q0 -15 8 -27t20 -12h228q13 0 20.5 11.5t7.5 27.5v905q0 15 -7.5 27t-20.5 12h-228 q-11 0 -19.5 -12.5t-8.5 -26.5v-905z" />
<glyph unicode="1" d="M264 1325v131q0 28 23 47t51 19h289q92 0 143 -50.5t51 -134.5v-1274q0 -25 -21 -44t-52 -19h-183q-30 0 -51.5 19t-21.5 44v1166q0 33 -19 33h-135q-28 0 -51 18t-23 45z" />
<glyph unicode="2" d="M109 127v240q0 47 3 74t26 72.5t69 86.5l526 377q17 13 17 166v78q0 10 -5.5 17t-13.5 7h-518q-29 0 -50.5 19t-21.5 47v145q0 28 21.5 47t50.5 19h616q100 0 174 -61t74 -173v-176q0 -34 -1 -53.5t-4.5 -58t-14 -67.5t-26.5 -65t-44.5 -69t-66.5 -62l-478 -342 q-12 -15 -12 -39v-80h535q32 0 54.5 -18.5t22.5 -48.5v-141q0 -30 -22.5 -49t-54.5 -19h-721q-56 0 -95.5 36.5t-39.5 90.5z" />
<glyph unicode="3" d="M92 63v142q0 28 23 45.5t51 17.5h489q5 0 9 7t4 16v317q0 21 -11 21h-411q-27 0 -50.5 19t-23.5 46v146q0 28 23 46.5t51 18.5h377q6 0 11 6.5t5 16.5v301q0 22 -10 22h-455q-31 0 -56.5 21.5t-25.5 52.5v123q0 31 25.5 52.5t56.5 21.5h590q98 0 151.5 -58t53.5 -137 v-391q0 -46 -27 -90t-86 -60q69 -17 105 -64t36 -93v-402q0 -95 -70 -161t-167 -66h-594q-28 0 -51 17.5t-23 45.5z" />
<glyph unicode="4" d="M47 489v162q0 64 13 109t61 117q49 74 185 277.5t206 311.5q35 56 111 56h215q42 0 71 -28t29 -64v-791h66q30 0 50.5 -13t20.5 -40v-162q0 -28 -21.5 -46t-49.5 -18h-66q0 -37 -1 -148.5t-1 -148.5q0 -25 -21 -44t-51 -19h-182q-28 0 -51 17.5t-23 45.5v297h-424 q-57 0 -97 37t-40 92zM360 639h248v473l-225 -397q-20 -26 -23 -76z" />
<glyph unicode="5" d="M125 788v588q0 64 46.5 105t109.5 41h596q29 0 52 -19t23 -49v-135q0 -30 -23 -49t-52 -19h-431v-327l80 12h242q85 0 151.5 -44t99 -109t32.5 -134v-354q0 -128 -93.5 -211.5t-226.5 -83.5l-510 2q-30 0 -54 19.5t-24 48.5v131q0 29 24 48t54 19h430q28 0 50 23.5 t22 58.5v273q0 14 -8.5 26.5t-20.5 12.5h-432q-59 0 -98 38.5t-39 87.5z" />
<glyph unicode="6" d="M141 268v977q0 126 75 201.5t210 75.5h508q30 0 54 -19.5t24 -48.5v-135q0 -29 -24 -48.5t-54 -19.5h-465v-329l47 4h291q131 0 202.5 -79t71.5 -188v-391q0 -112 -81 -190t-195 -78h-385q-103 0 -191 83t-88 185zM469 289q0 -9 3.5 -16t8.5 -7h258q5 0 9 7t4 16v344 q0 22 -11 22h-272v-366z" />
<glyph unicode="7" d="M131 1315v143q0 28 23 46t51 18h794q44 0 73.5 -27.5t29.5 -64.5v-84q0 -33 -23 -74l-596 -1217h2q-25 -55 -106 -55h-160q-27 0 -51.5 19t-24.5 47q0 3 2.5 8.5t6 13t4.5 10.5h-2l567 1170q-19 -2 -58.5 -8.5t-56.5 -8.5h-401q-28 0 -51 18t-23 46z" />
<glyph unicode="8" d="M90 238v190q0 39 1 60t9 58.5t23 64.5t46 62.5t75 69.5l61 45l-39 29q-54 42 -87 82.5t-46 84t-15.5 70t-2.5 74.5v144q0 82 51 149q35 43 93 71t112 30h440q62 -2 118.5 -28t92.5 -73q47 -71 47 -149v-144q0 -38 -1 -58.5t-9 -57t-23.5 -63.5t-46.5 -62.5t-76 -69.5 l-43 -29q36 -19 50 -30l22 -17q44 -34 75 -69.5t46 -62.5t23 -64t9 -57.5t1 -59.5v-190q0 -69 -49 -142q-35 -45 -90 -70.5t-113 -25.5h-506q-56 0 -111.5 25t-91.5 69q-45 70 -45 144zM403 303q0 -16 7 -28.5t20 -12.5h326q13 0 21 11.5t7 29.5v123q0 62 -18 76l-174 160 l-172 -158h2q-19 -19 -19 -84v-117zM420 1130q0 -54 18 -77l154 -160l156 160q18 23 18 77v103q0 15 -6 27t-17 12h-301q-22 0 -22 -39v-103z" />
<glyph unicode="9" d="M109 862v391q0 112 81 190.5t195 78.5h385q102 0 190.5 -83.5t88.5 -185.5v-977q0 -126 -75 -201t-210 -75h-512q-28 0 -51 17.5t-23 45.5v144q0 28 23 45.5t51 17.5h469v330l-47 -4h-291q-131 0 -202.5 78.5t-71.5 187.5zM438 889q0 -23 11 -23h272v389h-270 q-5 0 -9 -6.5t-4 -15.5v-344z" />
<glyph unicode=":" horiz-adv-x="565" d="M113 63v199q0 24 21.5 43t53.5 19h189q31 0 53.5 -19t22.5 -43v-199q0 -28 -23 -45.5t-53 -17.5h-189q-31 0 -53 17.5t-22 45.5zM113 866v199q0 24 21 42.5t54 18.5h189q32 0 54 -18.5t22 -42.5v-199q0 -28 -23 -45.5t-53 -17.5h-189q-31 0 -53 17.5t-22 45.5z" />
<glyph unicode=";" horiz-adv-x="681" d="M102 -51q13 33 64 160t76 194q21 51 94 51h162q43 0 61 -27t2 -59l-170 -321q-15 -28 -45.5 -46t-62.5 -18h-125q-34 0 -49.5 20t-6.5 46zM229 866v199q0 24 21.5 42.5t54.5 18.5h189q31 0 53 -18.5t22 -42.5v-199q0 -28 -23 -45.5t-52 -17.5h-189q-31 0 -53.5 17.5 t-22.5 45.5z" />
<glyph unicode="&#x3c;" horiz-adv-x="1110" d="M186 750q0 22 27 57l399 422q32 28 80 28h205q70 0 70 -43q0 -24 -31 -55l-375 -391q-12 -12 -12 -20.5t12 -20.5l383 -391q31 -31 31 -53q0 -43 -70 -43h-213q-54 0 -80 28l-401 422q-25 25 -25 60z" />
<glyph unicode="=" horiz-adv-x="1175" d="M106 463v143q0 25 21 44.5t51 19.5h817q33 0 53.5 -19t20.5 -45v-143q0 -28 -22 -46t-52 -18h-817q-29 0 -50.5 18t-21.5 46zM106 879v143q0 25 21 44t51 19h817q33 0 53.5 -18.5t20.5 -44.5v-143q0 -28 -22 -46t-52 -18h-817q-29 0 -50.5 18t-21.5 46z" />
<glyph unicode="&#x3e;" horiz-adv-x="1110" d="M143 283q0 22 31 53l383 391q12 12 12 20.5t-12 20.5l-375 391q-30 30 -30 55q0 43 69 43h205q46 0 78 -28l401 -422q27 -35 27 -57q0 -35 -25 -60l-401 -422q-26 -28 -80 -28h-213q-70 0 -70 43z" />
<glyph unicode="?" horiz-adv-x="1120" d="M72 1311v145q0 28 22.5 47t50.5 19h619q60 0 111.5 -22.5t86.5 -74t35 -122.5v-115q0 -44 -3.5 -72t-16.5 -68t-42.5 -82.5t-78.5 -95.5q-33 -35 -168 -170l-43 -43q-80 -79 -101.5 -101.5t-21.5 -29.5v-63q0 -24 -22 -44t-54 -20h-159q-32 0 -52 19.5t-20 44.5v10 q0 34 1 53.5t7 58t22.5 71.5t43.5 59h-2l360 383q14 21 17.5 39t3.5 80q0 11 -6 19.5t-13 8.5h-504q-28 0 -50.5 19t-22.5 47zM215 63q0 -28 16 -45.5t39 -17.5h189q22 0 38.5 17.5t16.5 45.5v179q0 24 -16 42.5t-39 18.5h-189q-24 0 -39.5 -18.5t-15.5 -42.5v-179z" />
<glyph unicode="@" horiz-adv-x="1937" d="M147 172l134 928q11 79 50.5 153.5t101 135t148.5 97t185 36.5h641q100 0 179.5 -37.5t125.5 -98.5t66.5 -137t11.5 -155l-98 -703q-11 -50 -40 -99t-70.5 -90t-99 -66t-120.5 -25h-651q-79 0 -135 53.5t-50 142.5q3 28 11.5 85.5t11.5 86.5q4 34 9 55t18 52t40 53.5 t68 36.5l399 104q4 2 7 27l14 96q1 8 -3 12.5t-9 4.5h-365q-25 0 -41 17.5t-16 39.5l16 106q7 15 25.5 29t38.5 14h424q86 0 141 -51t45 -147q-19 -145 -37 -271t-27 -190.5t-12 -89.5q-6 -41 -6 -55h61q40 0 69 30t34 70l94 674q9 87 -41.5 153t-136.5 66h-584 q-88 0 -158 -71.5t-88 -160.5l-129 -923q-7 -81 30.5 -143t115.5 -62h848q61 0 61 -55l-14 -113q-7 -12 -11.5 -18.5t-19 -15.5t-33.5 -9h-844q-102 0 -181.5 37t-125.5 98t-66.5 137t-11.5 156zM768 322h250q5 0 8 20l41 248l-264 -92q-13 -13 -17 -43l-18 -115 q-4 -18 0 -18z" />
<glyph unicode="A" horiz-adv-x="1370" d="M33 66l452 1374q17 48 52 65.5t100 26.5q22 2 46.5 2t49.5 -2q69 -8 103.5 -26.5t50.5 -65.5l450 -1374q2 -7 2 -14q1 -20 -13 -34q-18 -18 -44 -18h-219q-35 0 -53 45l-125 367h-400q-15 -46 -42 -124.5t-52 -152.5t-31 -90q-18 -45 -53 -45h-219q-26 0 -44 18 q-13 14 -13 34q0 7 2 14zM573 690h224l-111 490z" />
<glyph unicode="B" horiz-adv-x="1284" d="M150 66v1390q0 29 22.5 47.5t54.5 18.5h629q141 0 225 -89.5t84 -209.5v-215q0 -36 -7 -69.5t-23.5 -70.5t-51.5 -65.5t-84 -42.5q90 -17 141.5 -87.5t51.5 -162.5v-213q0 -120 -83 -208.5t-224 -88.5h-658q-34 0 -55.5 20t-21.5 46zM487 279h306q33 0 48 21.5t15 51.5 v189q0 80 -76 80h-293v-342zM487 885h267q32 0 51.5 26t19.5 60v188q0 31 -19 57.5t-50 26.5h-269v-358z" />
<glyph unicode="C" horiz-adv-x="1226" d="M123 303v916q0 121 85.5 212t227.5 91h592q32 0 54 -21t22 -47v-145q0 -28 -23.5 -47t-52.5 -19h-524q-20 0 -31.5 -17.5t-11.5 -39.5v-852q0 -21 11 -38t30 -17h526q33 0 54.5 -19t21.5 -45v-149q0 -29 -23 -47.5t-53 -18.5h-592q-142 0 -227.5 91t-85.5 212z" />
<glyph unicode="D" horiz-adv-x="1320" d="M150 66v1390q0 29 22.5 47.5t54.5 18.5h617q82 0 150.5 -29.5t112 -78t67.5 -110t24 -126.5v-834q0 -65 -24 -126.5t-67.5 -110t-112 -78t-150.5 -29.5h-617q-34 0 -55.5 20t-21.5 46zM487 279h301q34 0 53 23.5t19 53.5v811q0 30 -19 54t-53 24h-301v-966z" />
<glyph unicode="E" horiz-adv-x="1155" d="M123 119v1284q0 47 35 83t94 36h772q34 0 56 -21t22 -47v-145q0 -28 -24.5 -47t-53.5 -19h-553q-10 0 -10 -20v-303h438q32 0 53 -20t21 -46v-135q0 -30 -22 -49t-52 -19h-438v-354q0 -18 10 -18h553q34 0 56 -19t22 -45v-149q0 -29 -24 -47.5t-54 -18.5h-772 q-54 0 -91.5 34t-37.5 85z" />
<glyph unicode="F" horiz-adv-x="1103" d="M123 66v1316q0 61 45.5 100.5t103.5 39.5h725q32 0 54 -21t22 -47v-145q0 -28 -23.5 -47t-52.5 -19h-524q-10 0 -10 -20v-297h434q33 0 54.5 -20t21.5 -46v-149q0 -28 -23.5 -47t-52.5 -19h-434v-579q0 -29 -24 -47.5t-54 -18.5h-184q-34 0 -56 20t-22 46z" />
<glyph unicode="G" horiz-adv-x="1296" d="M123 303v916q0 122 84.5 212.5t226.5 90.5h613q45 0 74.5 -29t29.5 -66v-92q0 -40 -30.5 -66t-73.5 -26h-531q-21 0 -38 -18t-17 -39v-852q0 -20 14 -37.5t33 -17.5h369q10 0 10 20v289q0 20 -10 20h-232q-29 0 -53.5 19t-24.5 47v157q0 26 22 46t56 20h430 q61 0 100 -38.5t39 -90.5v-586q0 -80 -58.5 -131t-133.5 -51h-586q-142 0 -227.5 91t-85.5 212z" />
<glyph unicode="H" horiz-adv-x="1427" d="M150 66v1390q0 28 22.5 47t52.5 19h187q32 0 53.5 -20t21.5 -46v-524h453v524q0 28 23 47t53 19h186q33 0 54.5 -20t21.5 -46v-1390q0 -26 -21.5 -46t-54.5 -20h-186q-31 0 -53.5 18t-22.5 48v571h-453v-571q0 -26 -21.5 -46t-53.5 -20h-187q-31 0 -53 18t-22 48z" />
<glyph unicode="I" horiz-adv-x="665" d="M164 66v1390q0 28 23 47t53 19h186q31 0 53.5 -20t22.5 -46v-1390q0 -26 -22.5 -46t-53.5 -20h-186q-31 0 -53.5 18t-22.5 48z" />
<glyph unicode="J" horiz-adv-x="630" d="M-78 -174q0 26 21 45.5t55 19.5h205q10 0 10 21l2 1544q0 28 23 47t53 19h182q33 0 54.5 -20t21.5 -46v-1616q0 -110 -65.5 -175.5t-184.5 -65.5h-301q-31 0 -53.5 18.5t-22.5 48.5v160z" />
<glyph unicode="K" horiz-adv-x="1347" d="M150 70v1386q0 26 21 46t54 20h183q29 0 54 -19t25 -47v-455q299 397 342 455q43 66 121 66h215q22 0 40 -13.5t18 -35.5q0 -12 -15 -37l-334 -461q-48 -58 -114 -94q35 -4 74.5 -33.5t62.5 -63.5q136 -250 232 -428.5t127.5 -237t31.5 -59.5q4 -9 4 -18q0 -13 -8 -23 q-12 -18 -37 -18h-239q-56 0 -88 53l-324 590q-68 -82 -82 -98q-27 -36 -27 -88v-387q0 -31 -26 -50.5t-58 -19.5h-176q-34 0 -55.5 21t-21.5 49z" />
<glyph unicode="L" horiz-adv-x="1107" d="M150 186l2 1270q0 26 21 46t54 20h181q29 0 52 -19t23 -47l2 -1157q0 -20 11 -20h481q33 0 54.5 -20t21.5 -46v-145q0 -29 -23.5 -48.5t-52.5 -19.5h-633q-92 0 -143 50.5t-51 135.5z" />
<glyph unicode="M" horiz-adv-x="1873" d="M133 94v1266q0 176 246 176q116 0 176.5 -31t85.5 -102l297 -954l287 950q27 81 89 109t175 28q129 0 190.5 -48t61.5 -130v-1264q0 -41 -31 -67.5t-72 -26.5h-133q-44 0 -73 28.5t-29 65.5v895l-273 -887q-23 -68 -60 -92t-134 -24q-94 0 -129.5 24t-58.5 94l-273 891 v-901q0 -40 -34 -67t-72 -27h-129q-46 0 -76.5 28.5t-30.5 65.5z" />
<glyph unicode="N" horiz-adv-x="1419" d="M133 94v1286q0 77 59.5 116.5t163.5 39.5h52q194 0 241 -133l297 -916v940q0 37 30.5 66t74.5 29h129q39 0 72.5 -27t33.5 -68v-1269q0 -82 -61 -127t-166 -45h-39q-97 0 -159 31t-93 104l-295 919v-946q0 -40 -34 -67t-72 -27h-129q-46 0 -75.5 28.5t-29.5 65.5z" />
<glyph unicode="O" horiz-adv-x="1335" d="M135 305v914q0 122 85.5 212.5t228.5 90.5h438q142 0 227.5 -91t85.5 -212v-914q0 -122 -85.5 -213.5t-227.5 -91.5h-438q-143 0 -228.5 91.5t-85.5 213.5zM471 319q0 -14 11 -27t24 -13h325q13 0 23 13t10 27v881q0 14 -10 27.5t-23 13.5h-325q-13 0 -24 -13.5 t-11 -27.5v-881z" />
<glyph unicode="P" horiz-adv-x="1222" d="M152 66v1337q0 48 34.5 83.5t92.5 35.5h548q159 0 256 -103.5t97 -240.5v-265q0 -137 -97 -240.5t-256 -103.5h-342v-503q0 -29 -24 -47.5t-51 -18.5h-183q-33 0 -54 20t-21 46zM485 862h326q14 0 22.5 13t8.5 28v299q0 15 -8.5 28t-22.5 13h-315q-11 0 -11 -20v-361z " />
<glyph unicode="Q" horiz-adv-x="1353" d="M135 305v914q0 122 85.5 212.5t228.5 90.5h438q142 0 227.5 -91t85.5 -212v-914q0 -63 -26.5 -123.5t-73.5 -103.5l14 -23l88 -157q15 -25 15 -45q0 -7 -2 -14q-8 -25 -50 -25h-170q-76 0 -100 51l-57 135h-389q-143 0 -228.5 91.5t-85.5 213.5zM471 319q0 -14 13 -27 t26 -13h317q13 0 25 13t12 27v881q0 14 -12 27.5t-25 13.5h-317q-13 0 -26 -13.5t-13 -27.5v-881z" />
<glyph unicode="R" horiz-adv-x="1273" d="M150 1386q0 54 39.5 95t105.5 41h532q109 0 191 -50.5t122 -128t40 -165.5v-267q-3 -112 -67 -199.5t-171 -97.5l41 -57q138 -263 250 -467q0 -1 5 -13.5t5 -19.5q0 -26 -20 -41.5t-43 -15.5h-207q-23 0 -43 13t-27 28l-248 479q-17 28 -28 37.5t-37 9.5h-103v-501 q0 -29 -24 -47.5t-53 -18.5h-183q-31 0 -53 20t-22 46zM487 860h301q56 0 56 66v241q0 76 -66 76h-272q-7 0 -13 -6t-6 -14v-363z" />
<glyph unicode="S" horiz-adv-x="1167" d="M82 1032v236q0 63 23.5 113t62.5 80t86 45.5t98 15.5h625q32 0 54 -21t22 -47v-145q0 -28 -23.5 -47t-52.5 -19h-543q-12 0 -17 -7t-5 -26v-178q0 -48 14 -51l473 -190q52 -21 88.5 -53t55 -62t28.5 -72t12 -68.5t2 -66.5v-219q0 -82 -41.5 -140.5t-101.5 -84t-129 -25.5 h-641q-34 0 -56 20.5t-22 47.5v145q0 29 23 47.5t55 18.5h565q17 0 17 24v158q0 47 -23 57l-446 187q-66 27 -109.5 67t-62.5 88t-25 86t-6 86z" />
<glyph unicode="T" horiz-adv-x="1187" d="M10 1309v145q0 29 23 48.5t51 19.5h1018q29 0 52.5 -19.5t23.5 -48.5v-145q0 -26 -21.5 -46t-54.5 -20h-338v-1177q0 -29 -24 -47.5t-54 -18.5h-184q-33 0 -55.5 20t-22.5 46v1177h-340q-32 0 -53 20t-21 46z" />
<glyph unicode="U" horiz-adv-x="1314" d="M123 344v1112q0 28 23 47t53 19h184q33 0 54.5 -20t21.5 -46v-1137q0 -15 8.5 -27.5t21.5 -12.5h334q12 0 20.5 13t8.5 27v1137q0 29 23 47.5t55 18.5h184q33 0 55.5 -20t22.5 -46v-1112q0 -88 -40.5 -165.5t-123 -128t-190.5 -50.5h-363q-108 0 -190 50.5t-122 128 t-40 165.5z" />
<glyph unicode="V" horiz-adv-x="1413" d="M61 1448q0 32 27 53t59 21h127q44 0 79 -19t46 -55l306 -1069l305 1073q11 35 46 52.5t81 17.5h127q32 0 60 -21t28 -53q0 -29 -95 -318l-34 -106l-303 -942q-16 -42 -58 -62t-112 -30q-34 -2 -57 -2t-36 2q-66 9 -106.5 29t-56.5 65q-210 642 -228 698q-24 72 -60.5 189 t-51.5 159q-93 285 -93 318z" />
<glyph unicode="W" horiz-adv-x="1949" d="M61 1423q-3 12 -3 22q0 30 21 50q28 27 64 27h121q133 0 150 -90q31 -133 110.5 -485t122.5 -537l123 647q9 55 64 90t143 35q87 0 140.5 -34.5t64.5 -90.5q20 -103 62 -315.5t65 -331.5l229 1022q13 49 49.5 69.5t100.5 20.5h118q36 0 64 -27q21 -19 21 -49 q0 -12 -3 -25l-159 -620l-127 -486l-52 -196q-25 -73 -84 -103t-161 -30q-105 0 -169 35t-83 116l-76 537q-50 -332 -78 -535q-27 -153 -260 -153q-103 0 -157.5 29.5t-80.5 103.5z" />
<glyph unicode="X" horiz-adv-x="1329" d="M70 78l397 686l-393 680q-8 17 -8 30q0 15 10 27q20 21 47 21h217q68 0 92 -54q25 -50 108.5 -212.5t121.5 -237.5q191 375 231 450q24 54 92 54h217q26 0 46.5 -21t2.5 -57l-395 -682l404 -684q8 -17 8 -30q0 -16 -11 -27q-21 -21 -47 -21h-217q-68 0 -92 53l-239 469 q-37 -76 -117 -234.5t-117 -234.5q-24 -53 -92 -53h-217q-27 0 -47 21q-11 11 -10 27q0 13 8 30z" />
<glyph unicode="Y" horiz-adv-x="1363" d="M68 1454q-5 13 -5 24q0 15 11 26q18 18 43 18h213q37 0 61.5 -20t30.5 -40q19 -46 115 -273t143 -341q40 97 130 306.5t130 307.5q6 20 30.5 40t61.5 20h215q25 0 43 -18q11 -11 11 -26q0 -11 -5 -24l-450 -903h2v-485q0 -26 -22.5 -46t-55.5 -20h-182q-30 0 -54 18.5 t-24 47.5v485h2z" />
<glyph unicode="Z" horiz-adv-x="1251" d="M35 66v122q0 38 26 84l707 990l-205 -21h-403q-33 0 -53.5 19t-20.5 45v151q0 30 21.5 48t52.5 18h948q33 0 54.5 -20t21.5 -46v-123q0 -41 -33 -88q-118 -162 -356.5 -492.5t-356.5 -492.5q28 3 85 11.5t81 11.5h475q33 0 54.5 -19t21.5 -45v-153q0 -29 -24 -47.5 t-52 -18.5h-968q-34 0 -55 20t-21 46z" />
<glyph unicode="[" horiz-adv-x="761" d="M154 -166v1452q0 107 64 171.5t179 64.5h240q28 0 51 -19t23 -47v-131q0 -27 -23 -45t-51 -18h-133q-21 0 -21 -33v-1335q0 -33 21 -33h133q28 0 51 -19t23 -47v-131q0 -28 -23 -46.5t-51 -18.5h-240q-115 0 -179 64.5t-64 170.5z" />
<glyph unicode="\" horiz-adv-x="905" d="M35 1444q-10 30 6.5 54t56.5 24h166q31 0 61 -13t42 -41l493 -1390q12 -31 -9.5 -54.5t-53.5 -23.5h-160q-79 0 -100 55z" />
<glyph unicode="]" horiz-adv-x="761" d="M53 -205q0 28 23 47t51 19h133q21 0 21 33v1335q0 33 -21 33h-133q-28 0 -51 18t-23 45v131q0 28 23 47t51 19h240q115 0 179 -64.5t64 -171.5v-1452q0 -106 -64 -170.5t-179 -64.5h-240q-28 0 -51 18.5t-23 46.5v131z" />
<glyph unicode="^" horiz-adv-x="1124" d="M139 1027.5q-25 36.5 4 92.5l211 346q12 23 42 38.5t59 15.5h215q28 0 59.5 -15.5t42.5 -38.5l207 -346q20 -36 20 -59q0 -32 -27.5 -51t-74.5 -19h-113q-31 0 -59.5 15t-44.5 36l-119 271q-15 -35 -56 -127.5t-63 -143.5q-15 -20 -43 -35.5t-57 -15.5h-115 q-63 0 -88 36.5z" />
<glyph unicode="_" horiz-adv-x="1574" d="M90 -80q0 26 20 46t52 20h1249q32 0 53 -20t21 -46v-129q0 -28 -22 -46.5t-52 -18.5h-1249q-29 0 -50.5 18.5t-21.5 46.5v129z" />
<glyph unicode="`" horiz-adv-x="675" d="M83.5 1673q9.5 27 39.5 27h205q77 0 96 -43h-2l164 -303q12 -27 -2 -47.5t-47 -20.5h-142q-28 0 -57.5 14.5t-42.5 32.5l-197 279q-24 34 -14.5 61z" />
<glyph unicode="a" horiz-adv-x="1073" d="M102 207v203q0 27 1 43t5 44.5t15 48.5t28.5 43t48 40t70.5 28l342 76q11 5 11 29v67q0 12 -5.5 19.5t-13.5 7.5h-371q-29 0 -50 17t-21 42v152q0 21 21.5 40t49.5 19h467q65 0 120 -24t92.5 -79t37.5 -132v-680q0 -96 -57.5 -153.5t-161.5 -57.5h-403q-91 0 -158.5 53 t-67.5 154zM426 287q0 -19 10 -19h180q11 0 11 19v223l-181 -37q-9 -4 -14.5 -18.5t-5.5 -24.5v-143z" />
<glyph unicode="b" horiz-adv-x="1101" d="M123 1458q0 28 24 46t52 18h180q32 0 52 -19t20 -45v-332h284q124 0 199.5 -80t75.5 -186v-592q0 -110 -82 -189t-197 -79h-448q-75 0 -116.5 40t-41.5 107zM453 293q0 -25 12 -25h203q6 0 10 8.5t4 16.5v538q0 8 -4 16.5t-10 8.5h-215v-563z" />
<glyph unicode="c" horiz-adv-x="956" d="M125 227v674q0 90 65 158.5t172 68.5h461q31 0 51.5 -18.5t20.5 -44.5v-145q0 -28 -22 -46t-50 -18h-315q-28 0 -42.5 -15.5t-14.5 -41.5v-475q0 -56 55 -56h317q31 0 51.5 -18.5t20.5 -44.5v-142q0 -28 -22 -45.5t-50 -17.5h-461q-97 0 -167 66t-70 161z" />
<glyph unicode="d" horiz-adv-x="1101" d="M92 268v592q0 106 75.5 186t199.5 80h284v332q0 26 20.5 45t53.5 19h180q28 0 51 -18t23 -46v-1311q0 -67 -42 -107t-116 -40h-450q-115 0 -197 79t-82 189zM420 293q0 -8 4 -16.5t10 -8.5h203q12 0 12 25v563h-215q-6 0 -10 -8.5t-4 -16.5v-538z" />
<glyph unicode="e" horiz-adv-x="1091" d="M123 236v679q0 96 57.5 153.5t161.5 57.5h422q91 0 158 -52.5t67 -153.5v-203q0 -27 -1 -43t-5 -45t-15 -48.5t-28.5 -42.5t-48 -40.5t-70.5 -28.5l-352 -74q-18 -4 -18 -30v-68q0 -12 6 -19.5t14 -7.5h381q29 0 50.5 -17t21.5 -42v-152q0 -21 -22 -40t-50 -19h-479 q-64 0 -119.5 24.5t-93 79.5t-37.5 132zM446 618l193 35q27 6 27 45v138q0 8 -5 15t-12 7h-186q-7 0 -12 -7t-5 -15v-218z" />
<glyph unicode="f" horiz-adv-x="833" d="M125 63v1244q0 85 61 150t162 65h404q31 0 51 -19t20 -45v-143q0 -28 -21.5 -46t-49.5 -18h-285q-6 0 -10 -7t-4 -15v-266h229q32 0 53 -19t21 -43v-145q0 -26 -23 -44t-51 -18h-229v-631q0 -28 -23 -45.5t-51 -17.5h-182q-31 0 -51.5 18.5t-20.5 44.5z" />
<glyph unicode="g" horiz-adv-x="1103" d="M123 266v592q0 110 82 189t196 79h383q89 0 143 -56t54 -130v-1065q0 -124 -76 -200t-211 -76h-430q-29 0 -50 17t-21 42v149q0 21 21.5 40.5t49.5 19.5h367q22 0 22 33v100h-256q-124 0 -199 80t-75 186zM451 293q0 -8 4 -16.5t10 -8.5h186v563q0 8 -4 16.5t-10 8.5 h-172q-6 0 -10 -8.5t-4 -16.5v-538z" />
<glyph unicode="h" horiz-adv-x="1054" d="M127 63v1395q0 28 23 46t51 18h176q33 0 53.5 -19t20.5 -45v-332h233q126 0 202.5 -81t76.5 -187l-2 -795q0 -26 -20.5 -44.5t-53.5 -18.5h-176q-28 0 -51 17.5t-23 45.5l-2 756q0 8 -4 15.5t-8 7.5h-170v-779q0 -25 -22 -44t-52 -19h-180q-29 0 -50.5 17.5t-21.5 45.5z " />
<glyph unicode="i" horiz-adv-x="626" d="M143 66v995q0 28 23 46.5t53 18.5h187q31 0 53 -20t22 -45v-995q0 -26 -22 -46t-53 -20h-187q-31 0 -53.5 18t-22.5 48zM143 1284v174q0 25 22 44.5t54 19.5h189q33 0 54 -19t21 -45v-174q0 -25 -24 -44t-51 -19h-189q-30 0 -53 18.5t-23 44.5z" />
<glyph unicode="j" horiz-adv-x="598" d="M-96 -193q0 28 21 47t50 19h138q16 0 16 27v1163q0 25 22 44t52 19h184q30 0 51 -19t21 -44v-1198q0 -121 -72 -193.5t-203 -72.5h-209q-29 0 -50 18.5t-21 46.5v143zM125 1284v174q0 25 22 44.5t54 19.5h188q33 0 54.5 -19t21.5 -45v-174q0 -25 -24.5 -44t-51.5 -19 h-188q-30 0 -53 18.5t-23 44.5z" />
<glyph unicode="k" horiz-adv-x="1099" d="M133 63v1395q0 28 24 46t52 18h180q32 0 52 -19t20 -45v-600q133 173 168 221q12 17 21 25.5t29 15t52 6.5h201q20 0 36.5 -13.5t16.5 -31.5q0 -14 -12 -32q-47 -63 -126.5 -159t-135.5 -161l-56 -65q40 -4 75 -36t56 -71l254 -494q9 -15 9 -22q0 -17 -15.5 -29 t-32.5 -12h-206q-41 0 -62 13t-43 46l-203 433q-26 -26 -26 -58v-371q0 -28 -22 -45.5t-50 -17.5h-180q-33 0 -54.5 18.5t-21.5 44.5z" />
<glyph unicode="l" horiz-adv-x="636" d="M98 219v1239q0 26 20.5 45t53.5 19h180q28 0 51 -18t23 -46v-1149q0 -26 16 -26h78q33 0 53.5 -19t20.5 -45v-156q0 -28 -23 -45.5t-51 -17.5h-196q-107 0 -166.5 60t-59.5 159z" />
<glyph unicode="m" horiz-adv-x="1591" d="M123 63v824q0 95 69 167t185 72h250q46 0 94 -26.5t74 -63.5q23 39 68.5 64.5t101.5 25.5h254q114 0 181.5 -71.5t67.5 -167.5v-824q0 -28 -21.5 -45.5t-51.5 -17.5h-178q-33 0 -54.5 18.5t-21.5 44.5v768q0 8 -4.5 16.5t-10.5 8.5h-155q-6 0 -9.5 -8.5t-3.5 -16.5v-768 q0 -28 -21.5 -45.5t-49.5 -17.5h-180q-33 0 -54.5 18.5t-21.5 44.5v768q0 8 -4.5 16.5t-10.5 8.5h-151q-12 0 -12 -25v-768q0 -28 -22 -45.5t-50 -17.5h-184q-30 0 -52 19t-22 44z" />
<glyph unicode="n" horiz-adv-x="1124" d="M123 63v824q0 95 69 167t183 72h377q114 0 183 -72t69 -167l-3 -824q0 -28 -22.5 -45.5t-50.5 -17.5h-180q-33 0 -53.5 18.5t-20.5 44.5v768q0 8 -4.5 16.5t-10.5 8.5h-194q-12 0 -12 -25v-768q0 -28 -22 -45.5t-52 -17.5h-182q-33 0 -53.5 18.5t-20.5 44.5z" />
<glyph unicode="o" horiz-adv-x="1128" d="M123 266v592q0 112 81.5 190t196.5 78h324q103 0 192 -83.5t89 -184.5v-592q0 -108 -72.5 -187t-198.5 -79h-336q-90 0 -154 39.5t-93 98.5t-29 128zM453 293q0 -9 6 -17t16 -8h176q11 0 18 8t7 17v538q0 9 -7 17t-18 8h-176q-10 0 -16 -8t-6 -17v-538z" />
<glyph unicode="p" horiz-adv-x="1101" d="M123 -336v1323q0 64 39 101.5t110 37.5h459q115 0 197 -79t82 -189v-592q0 -106 -75.5 -186t-199.5 -80h-284v-336q0 -25 -20 -44t-52 -19h-180q-28 0 -52 17.5t-24 45.5zM453 268h217q4 0 8 7.5t4 15.5v540q0 10 -4.5 17.5t-9.5 7.5h-205q-10 0 -10 -20v-568z" />
<glyph unicode="q" horiz-adv-x="1099" d="M90 266v592q0 110 82 189t197 79h458q71 0 110.5 -37.5t39.5 -101.5v-1325q0 -28 -23 -45.5t-51 -17.5h-180q-32 0 -53 19t-21 44v338h-284q-124 0 -199.5 80t-75.5 186zM418 291q0 -8 4 -15.5t8 -7.5h217v568q0 20 -10 20h-205q-5 0 -9.5 -7.5t-4.5 -17.5v-540z" />
<glyph unicode="r" horiz-adv-x="802" d="M123 63v797q0 106 74 186t202 80h279q33 0 53.5 -19.5t20.5 -45.5v-143q0 -29 -22 -47.5t-52 -18.5h-189q-34 0 -34 -49v-740q0 -28 -23 -45.5t-51 -17.5h-184q-32 0 -53 19t-21 44z" />
<glyph unicode="s" horiz-adv-x="1017" d="M102 766v139q0 109 73 165t177 56h447q33 0 53 -18.5t20 -44.5v-143q0 -28 -21.5 -46t-51.5 -18h-361q-4 0 -8 -7t-4 -15v-46q0 -16 6 -18l281 -156q116 -63 159 -128t43 -136v-114q0 -56 -17.5 -99.5t-43.5 -68.5t-61 -41t-65.5 -21.5t-61.5 -5.5h-488q-30 0 -51 19 t-21 44v142q0 28 21.5 45.5t50.5 17.5h400q4 0 8 6.5t4 14.5v39q0 12 -17 26q-27 15 -121 67.5t-143 78.5q-66 33 -110 69t-63.5 72t-26.5 64t-7 61z" />
<glyph unicode="t" horiz-adv-x="763" d="M90 186v1213q0 21 17.5 42.5t44.5 31.5l170 51h-3q29 12 49 12q1 0 2 1q18 0 28 -7t15 -22.5t6 -25.5t1 -26v-344h164q33 0 53 -18.5t20 -44.5v-144q0 -26 -21.5 -44.5t-51.5 -18.5h-164v-533q0 -26 16 -26h170q31 0 51.5 -19t20.5 -45v-156q0 -28 -22 -45.5t-50 -17.5 h-319q-76 0 -136.5 52t-60.5 134z" />
<glyph unicode="u" horiz-adv-x="1124" d="M123 268v795q0 28 22.5 45.5t53.5 17.5h178q33 0 53.5 -18.5t20.5 -44.5v-770q0 -8 6 -16.5t14 -8.5h180q8 0 14.5 8.5t6.5 16.5v770q0 28 21 45.5t50 17.5h185q33 0 53 -18.5t20 -44.5v-795q0 -107 -76.5 -187.5t-203.5 -80.5h-318q-127 0 -203.5 80.5t-76.5 187.5z" />
<glyph unicode="v" horiz-adv-x="1136" d="M55 1030q-5 19 -5 33q0 63 91 63h123q110 0 127 -63l182 -705l177 705q16 63 124 63h121q55 0 77 -26q15 -17 15 -42q0 -14 -4 -30l-307 -942q-20 -57 -71.5 -78.5t-133.5 -21.5q-84 0 -135.5 21.5t-73.5 78.5q-56 178 -180 549q-10 29 -31.5 98.5t-33.5 104.5z" />
<glyph unicode="w" horiz-adv-x="1552" d="M49 1044q-3 13 -3 23q0 59 83 59h145q107 0 119 -69q21 -110 66.5 -331.5t68.5 -342.5q46 215 52 244q45 220 51 247q14 80 145 80q67 0 101.5 -18t48.5 -59l108 -486l127 664q13 71 119 71h150q78 0 78 -55q0 -11 -3 -24l-252 -957q-12 -42 -44 -66t-69.5 -31t-92.5 -7 q-85 0 -135 21t-66 83l-68 311q-42 -188 -67 -311q-19 -60 -69.5 -82t-131.5 -22q-82 0 -135 22t-72 82q-41 159 -67 254q-2 8 -73.5 273.5t-113.5 426.5z" />
<glyph unicode="x" horiz-adv-x="1075" d="M68 66l280 497l-276 498q-5 10 -5 20q0 13 11 25q18 20 37 20h227q61 0 72 -43l125 -301l108 301q11 43 72 43h242q19 0 37 -20q11 -12 11 -25q0 -9 -5 -20l-279 -498l283 -497q5 -10 5 -20q0 -14 -11 -26q-18 -20 -37 -20h-238q-61 0 -72 43l-116 289l-117 -289 q-11 -43 -72 -43h-239q-19 0 -37 20q-11 12 -11 26q0 10 5 20z" />
<glyph unicode="y" horiz-adv-x="1155" d="M49 1042q-6 17 -6 31q0 18 11 31q19 22 69 22h158q102 0 116 -65l185 -719q16 67 80.5 323.5t97.5 395.5q17 65 117 65h155q81 0 81 -55q0 -13 -5 -29l-449 -1376q-11 -36 -33.5 -51.5t-76.5 -15.5h-148q-80 0 -80 54q0 14 5 30l114 329h6q-69 35 -90 90z" />
<glyph unicode="z" horiz-adv-x="999" d="M51 63v119q0 27 31 86l467 598q-14 -1 -42.5 -5t-43.5 -5h-311q-28 0 -51 18t-23 46v143q0 26 20.5 44.5t53.5 18.5h725q31 0 51 -18.5t20 -44.5v-119q0 -47 -30 -86l-476 -602q10 0 31 6l43 6h334q31 0 51.5 -18.5t20.5 -44.5v-142q0 -28 -22 -45.5t-50 -17.5h-725 q-33 0 -53.5 18.5t-20.5 44.5z" />
<glyph unicode="{" horiz-adv-x="790" d="M82 535v47q0 29 7.5 47.5t22.5 26.5t27 10t31 2q23 0 23 75v543q0 107 64.5 171.5t180.5 64.5h238q28 0 51 -18t23 -46v-129q0 -30 -15 -45.5t-59 -15.5h-121q-14 0 -23.5 -13.5t-9.5 -29.5v-465q0 -16 -2 -32t-10 -42t-22.5 -47.5t-42 -43.5t-64.5 -36q46 -18 77 -46 t43.5 -59.5t16.5 -53t4 -42.5v-460q0 -19 10 -31t23 -12h121q28 0 51 -18t23 -46v-129q0 -28 -23 -45.5t-51 -17.5h-238q-116 0 -180.5 64t-64.5 171v545q0 72 -23 72q-18 0 -31 2.5t-27.5 10t-22 25.5t-7.5 46z" />
<glyph unicode="|" horiz-adv-x="620" d="M164 -338v1796q0 28 23 46t51 18h145q31 0 52.5 -19.5t21.5 -44.5v-1796q0 -24 -21.5 -43.5t-52.5 -19.5h-145q-28 0 -51 17.5t-23 45.5z" />
<glyph unicode="}" horiz-adv-x="790" d="M41 -209q0 28 23 46t51 18h121q13 0 22.5 12t9.5 31v460q0 21 4.5 42.5t17 53t43.5 59.5t77 46q-46 17 -77 45t-43.5 59.5t-17 53.5t-4.5 43v465q0 16 -9 29.5t-23 13.5h-121q-44 0 -59 15.5t-15 45.5v129q0 28 23 46t51 18h237q116 0 181 -64.5t65 -171.5v-543 q0 -75 23 -75q19 0 31 -2t27 -10t22.5 -26.5t7.5 -47.5v-47q0 -28 -7.5 -46t-22 -25.5t-27.5 -10t-31 -2.5q-23 0 -23 -72v-545q0 -106 -65 -170.5t-181 -64.5h-237q-28 0 -51 17.5t-23 45.5v129z" />
<glyph unicode="~" horiz-adv-x="1124" d="M92 649v96q0 76 57 126.5t132 50.5h524q9 29 16 44.5t24.5 29.5t43.5 14h61q82 0 82 -92v-89q0 -77 -56.5 -127.5t-131.5 -50.5h-529q-4 -4 -4 -12q-8 -27 -14 -41t-22.5 -27.5t-41.5 -13.5h-59q-43 0 -62.5 26.5t-19.5 65.5z" />
<glyph unicode="&#xa1;" horiz-adv-x="544" d="M102 883v178q0 24 22 42.5t54 18.5h189q33 0 54 -18.5t21 -42.5v-178q0 -28 -23 -46t-52 -18h-189q-31 0 -53.5 18t-22.5 46zM125 -336q0 -26 14.5 -44.5t38.5 -18.5h189q21 0 37 17.5t16 45.5l-39 995q0 28 -16 46t-37 18h-111q-24 0 -38.5 -19t-14.5 -45 q-1 -50 -4.5 -127.5t-8.5 -188.5t-8 -181q-18 -347 -18 -498z" />
<glyph unicode="&#xa2;" horiz-adv-x="956" d="M125 227v674q0 90 65 158.5t172 68.5l62 -2v156q0 27 21.5 45.5t50.5 18.5h145q33 0 53.5 -19t20.5 -45v-156h96q34 3 59 -18.5t25 -46.5v-139q0 -28 -22 -47t-50 -19h-315q-28 0 -42.5 -15.5t-14.5 -41.5v-475q0 -56 55 -56h317q31 0 51.5 -18.5t20.5 -44.5v-142 q0 -28 -22 -45.5t-50 -17.5h-108v-156q0 -26 -20.5 -44.5t-53.5 -18.5h-145q-29 0 -50.5 18t-21.5 45v156h-62q-97 0 -167 66t-70 161z" />
<glyph unicode="&#xa3;" horiz-adv-x="989" d="M51 817v144q0 26 20.5 45.5t53.5 19.5h78v256q0 97 67.5 168.5t180.5 71.5h323q30 0 52 -20t22 -44v-158q0 -28 -22 -45.5t-52 -17.5h-215q-12 0 -20.5 -12.5t-8.5 -26.5v-172h166q30 0 52 -20t22 -45v-144q0 -27 -23.5 -46t-50.5 -19h-166v-484h347q31 0 51 -18.5 t20 -44.5v-142q0 -28 -21.5 -45.5t-49.5 -17.5h-742q-30 0 -52 17.5t-22 45.5v142q0 26 20.5 44.5t53.5 18.5h45q11 4 17 19t6 28v437h-78q-27 0 -50.5 19t-23.5 46z" />
<glyph unicode="&#xa4;" horiz-adv-x="1300" d="M94 281q0 30 31 61l80 80h-2q-31 85 -31 240q0 160 31 245h2l-78 76q-31 31 -31 68q0 33 37 67h-2l55 58q27 30 78 30t80 -32q15 -13 78 -76q89 26 221 26q145 0 236 -30l86 86q25 28 71 28q50 0 78 -32l57 -58h-2q39 -36 39 -69q0 -34 -30 -64l-86 -86h2q24 -84 24 -237 q0 -159 -24 -232h-2l43 -47h-2l55 -51q18 -24 18 -53q0 -33 -26 -66l-72 -68q-24 -24 -66 -24q-44 0 -84 31l-73 73q-95 -28 -242 -28q-121 0 -221 28l-84 -82q-31 -28 -72 -28q-42 0 -73 28l-70 70q-29 37 -29 68zM451 662q0 -41 2.5 -66t13 -55t30.5 -46t56.5 -27 t89.5 -11q54 0 91.5 11t58 27t31.5 45.5t13.5 55t2.5 66.5q0 52 -5 82t-23.5 61.5t-60 46t-108.5 14.5q-53 0 -89.5 -11t-56.5 -27t-30.5 -45.5t-13 -54.5t-2.5 -66z" />
<glyph unicode="&#xa5;" horiz-adv-x="1312" d="M53 1421q-21 47 7 74t65 27h151q54 0 89 -28t45 -58q41 -99 122.5 -294t122.5 -294q40 97 123 293t123 293q10 31 45 59.5t90 28.5h154q35 0 62.5 -27t4.5 -74l-346 -688h152q33 0 53.5 -18.5t20.5 -44.5v-109q0 -28 -22 -45.5t-52 -17.5h-240v-90h240q33 0 53.5 -19 t20.5 -45v-108q0 -28 -22 -46t-52 -18h-240v-106q0 -26 -22.5 -46t-55.5 -20h-182q-30 0 -54 18.5t-24 47.5v106h-239q-29 0 -50.5 18t-21.5 46v108q0 25 21 44.5t51 19.5h239v90h-239q-29 0 -50.5 17.5t-21.5 45.5v109q0 25 21 44t51 19h151z" />
<glyph unicode="&#xa6;" horiz-adv-x="620" d="M164 -338v768q0 28 23 46t51 18h145q31 0 52.5 -19.5t21.5 -44.5v-768q0 -24 -21.5 -43.5t-52.5 -19.5h-145q-28 0 -51 17.5t-23 45.5zM164 690v768q0 28 23 46t51 18h145q31 0 52.5 -19.5t21.5 -44.5v-768q0 -24 -21.5 -43.5t-52.5 -19.5h-145q-28 0 -51 17.5t-23 45.5z " />
<glyph unicode="&#xa7;" horiz-adv-x="1214" d="M123 629v604q0 94 46.5 161.5t114 97.5t144.5 30h510q30 0 52 -19.5t22 -44.5v-143q0 -26 -22 -45t-52 -19h-471q-11 0 -18 -12.5t-7 -24.5v-186q0 -37 25 -53l442 -178q42 -17 74.5 -40.5t51.5 -51.5t31.5 -53.5t17.5 -58.5t6.5 -55t1.5 -53v-600q0 -72 -26.5 -128.5 t-70.5 -90t-97.5 -50.5t-111.5 -17h-524q-32 0 -52 19t-20 44v143q0 28 21.5 46t50.5 18h492q18 0 18 20v189q0 47 -27 61l-428 174q-63 26 -104.5 64t-59.5 84.5t-24 83.5t-6 84zM442 618q0 -19 10 -45.5t29 -35.5l291 -117v69q0 10 -2 22t-10.5 30t-22.5 26 q-39 16 -139 59t-156 66v-74z" />
<glyph unicode="&#xa8;" horiz-adv-x="944" d="M88 1284v174q0 25 22 44.5t54 19.5h188q33 0 54.5 -19t21.5 -45v-174q0 -25 -24 -44t-52 -19h-188q-30 0 -53 18.5t-23 44.5zM516 1284v174q0 25 22 44.5t54 19.5h188q33 0 54.5 -19t21.5 -45v-174q0 -25 -24 -44t-52 -19h-188q-30 0 -53 18.5t-23 44.5z" />
<glyph unicode="&#xa9;" horiz-adv-x="1560" d="M92 766q0 69 2.5 120.5t11 112t23 105.5t40 93.5t61 82.5t87.5 66t117.5 51.5t152.5 31t191 11.5t191 -11.5t153 -31t118 -51.5t88 -66t62 -82.5t41 -93.5t23.5 -105.5t11 -112.5t2.5 -120t-2.5 -120t-11 -112t-23.5 -104.5t-41 -92.5t-62 -82t-88 -65t-118 -50 t-152.5 -30.5t-191.5 -11.5t-191.5 11.5t-152 30.5t-117.5 50.5t-87.5 65t-61 81.5t-40 92.5t-23 105t-11 111.5t-2.5 120zM250 766q0 -71 3.5 -122t16 -110.5t34.5 -100t61 -80.5t94 -64t135.5 -38.5t183.5 -14.5t183.5 14.5t136 38.5t95.5 64t62.5 81t35.5 99.5t16.5 110 t3.5 122.5t-3.5 122.5t-16.5 111t-35.5 101.5t-62.5 82.5t-95.5 65t-136 39.5t-183.5 15q-80 0 -146.5 -9t-117 -24.5t-90.5 -41t-67.5 -52.5t-47 -65.5t-31 -74.5t-18 -84.5t-8.5 -89.5t-2 -96zM473 526v469q0 64 47.5 113t126.5 49h320q11 0 22.5 -6.5t11.5 -15.5v-84 q0 -10 -11.5 -17.5t-22.5 -7.5h-285q-19 0 -31 -15t-12 -34v-432q0 -20 12 -35.5t31 -15.5h285q11 0 22.5 -8t11.5 -17v-84q0 -9 -11.5 -16t-22.5 -7h-320q-79 0 -126.5 49.5t-47.5 114.5z" />
<glyph unicode="&#xaa;" horiz-adv-x="745" d="M92 543v116q0 26 1.5 41.5t9 40.5t27 44t50.5 32l248 53q4 0 4 19v51q0 18 -6 18h-238q-57 0 -57 46v77q0 20 15 32.5t42 12.5h297q68 0 118 -39.5t50 -113.5v-428q0 -69 -43 -111.5t-121 -42.5h-231q-67 0 -116.5 39t-49.5 113zM311 575q0 -10 2 -10h119q2 4 2 10v132 l-112 -23q-11 -6 -11 -29v-80z" />
<glyph unicode="&#xab;" horiz-adv-x="1286" d="M49 561q0 27 35 74l266 328q31 34 88 34h172q30 0 53 -10.5t23 -34.5q0 -21 -31 -57l-249 -311q-17 -22 0 -41l251 -301q35 -38 35 -62q0 -27 -24 -39t-56 -12h-174q-36 0 -55.5 10.5t-40.5 34.5l-258 313q-13 16 -18.5 24t-11 21.5t-5.5 28.5zM551 561q0 27 35 74 l266 328q31 34 88 34h172q30 0 53 -10.5t23 -34.5q0 -21 -31 -57l-250 -311q-17 -22 0 -41l252 -301q35 -38 35 -62q0 -27 -24 -39t-56 -12h-174q-36 0 -55.5 10.5t-40.5 34.5l-258 313q-13 16 -18.5 24t-11 21.5t-5.5 28.5z" />
<glyph unicode="&#xac;" horiz-adv-x="1226" d="M113 918v143q0 26 20 44.5t53 18.5h826q44 0 73 -27.5t29 -64.5v-446q0 -28 -23.5 -46t-52.5 -18h-143q-32 0 -54 20t-22 44v268h-633q-28 0 -50.5 18.5t-22.5 45.5z" />
<glyph unicode="&#xad;" horiz-adv-x="968" d="M113 502v155q0 25 20.5 43.5t52.5 18.5h598q31 0 51.5 -19t20.5 -43v-155q0 -28 -22 -46t-50 -18h-598q-30 0 -51.5 18t-21.5 46z" />
<glyph unicode="&#xae;" horiz-adv-x="1357" d="M102 973q0 58 2.5 102.5t10 95t20 88.5t34.5 78t52.5 68.5t73.5 55t98 42.5t127 25.5t158 9.5q110 0 197 -15.5t147.5 -41t103.5 -68t67.5 -86t39 -106t18.5 -118t4 -130.5q0 -73 -5 -130t-20 -118t-41 -106t-70 -86.5t-103.5 -67.5t-145 -41.5t-192.5 -15.5 q-112 0 -199.5 15.5t-147.5 41t-103 68t-67 86t-37.5 106.5t-17.5 117.5t-4 130.5zM236 973q0 -60 2.5 -102t12.5 -92t28.5 -83.5t51 -67.5t78.5 -53.5t114 -32t155 -12.5q83 0 149.5 12t112.5 32.5t79.5 53.5t53 68t31 83t15 92t3.5 102q0 59 -3 102t-13.5 92t-29.5 83 t-52 67.5t-79.5 53.5t-113.5 32t-153 12t-153 -12t-113 -32t-79 -53.5t-51.5 -67.5t-29 -83.5t-13.5 -92t-3 -101.5zM473 688v529q0 34 24 60t62 26h191q60 0 96.5 -39t36.5 -90v-123q0 -52 -36.5 -90.5t-96.5 -38.5l36 -19l109 -198q1 -2 2.5 -6t2.5 -6.5t1 -4.5 q0 -9 -6 -14.5t-14 -5.5h-80q-20 0 -33 22l-123 217q-9 15 -24 15h-31v-234q0 -8 -7 -14t-14 -6h-75q-21 0 -21 20zM590 1028h141q13 0 23 10t10 21v106q0 11 -10 21t-23 10h-141v-168z" />
<glyph unicode="&#xaf;" horiz-adv-x="1705" />
<glyph unicode="&#xb0;" horiz-adv-x="718" d="M51 1239q0 125 89 211t218 86t219.5 -86.5t90.5 -210.5q0 -123 -90.5 -210t-219.5 -87t-218 87t-89 210zM276 1239q0 -39 24.5 -65.5t57.5 -26.5q35 0 58.5 26t23.5 66t-23.5 67t-58.5 27q-33 0 -57.5 -27.5t-24.5 -66.5z" />
<glyph unicode="&#xb1;" horiz-adv-x="1044" d="M90 63v144q0 24 20.5 42.5t53.5 18.5h715q31 0 51 -18.5t20 -42.5v-144q0 -28 -21.5 -45.5t-49.5 -17.5h-715q-30 0 -52 17.5t-22 45.5zM92 721v143q0 25 21 44.5t53 19.5h211v219q0 24 22 43.5t52 19.5h145q28 0 51 -17.5t23 -45.5v-219h209q32 0 52.5 -19.5t20.5 -44.5 v-143q0 -28 -22.5 -46t-50.5 -18h-209v-221q0 -28 -23 -45.5t-51 -17.5h-145q-30 0 -52 19.5t-22 43.5v221h-211q-28 0 -51 18t-23 46z" />
<glyph unicode="&#xb2;" horiz-adv-x="788" d="M96 760v129q0 26 2 42t16.5 42t41.5 51l282 203h-2q2 2 2 69v47h-266q-21 0 -39 14.5t-18 35.5v77q0 23 17.5 37.5t39.5 14.5h332q61 0 106 -37t45 -105v-92q0 -30 -1.5 -49t-9 -51t-27.5 -61t-52 -54l-258 -184h2v-33h266q26 0 44 -14.5t18 -38.5v-74q0 -24 -18 -38.5 t-44 -14.5h-385q-37 0 -65.5 25t-28.5 59z" />
<glyph unicode="&#xb3;" horiz-adv-x="790" d="M131 727v74q0 23 18.5 37t40.5 14h250v162h-204q-25 0 -43.5 15t-18.5 36v78q0 21 18.5 35t43.5 14h188v154h-229q-24 0 -44 15t-20 40v65q0 25 20 40.5t44 15.5h317q62 0 95.5 -36t33.5 -83v-209q0 -44 -33 -80h-2q25 -18 38 -42t13 -44v-215q0 -57 -43.5 -97 t-103.5 -40h-320q-22 0 -40.5 14.5t-18.5 36.5z" />
<glyph unicode="&#xb4;" horiz-adv-x="675" d="M88 1354l166 303h-2q19 43 96 43h205q30 0 39.5 -27t-14.5 -61l-197 -279q-13 -18 -42.5 -32.5t-57.5 -14.5h-142q-34 0 -48.5 20.5t-2.5 47.5z" />
<glyph unicode="&#xb6;" horiz-adv-x="1296" d="M113 934v256q0 133 94 232.5t250 99.5h594q44 0 73 -28t29 -64v-1768q0 -25 -21 -44t-53 -19h-118q-30 0 -52 17.5t-22 45.5v1606h-101v-1606q0 -25 -20.5 -44t-52.5 -19h-119q-30 0 -52 17.5t-22 45.5v938h-63q-156 0 -250 100.5t-94 233.5z" />
<glyph unicode="&#xb7;" horiz-adv-x="585" d="M123 643v199q0 24 21.5 42.5t54.5 18.5h188q32 0 54 -18.5t22 -42.5v-199q0 -28 -23 -45.5t-53 -17.5h-188q-31 0 -53.5 17.5t-22.5 45.5z" />
<glyph unicode="&#xb8;" horiz-adv-x="655" d="M87.5 -286q-21.5 33 0.5 73l148 256q13 21 43.5 36t58.5 15h108q111 0 111 -61q0 -24 -25 -62l-184 -245q-11 -16 -40 -30.5t-58 -14.5h-92q-49 0 -70.5 33z" />
<glyph unicode="&#xb9;" horiz-adv-x="716" d="M162 1401v69q0 24 17.5 38t41.5 14h156q58 0 90.5 -31.5t32.5 -83.5v-680q0 -21 -17 -36t-43 -15h-98q-23 0 -41 15.5t-18 35.5v625h-62q-24 0 -41.5 13.5t-17.5 35.5z" />
<glyph unicode="&#xba;" horiz-adv-x="727" d="M92 1032v314q0 73 54.5 124.5t129.5 51.5h170q70 0 129.5 -56t59.5 -123v-311q0 -71 -47.5 -122.5t-132.5 -51.5h-179q-90 0 -137 51t-47 123zM303 1065q0 -21 12 -21h95q12 0 12 21v252q0 20 -12 20h-95q-12 0 -12 -22v-250z" />
<glyph unicode="&#xbb;" horiz-adv-x="1286" d="M92 180q0 27 35 62l252 301q17 19 0 41l-250 311q-31 36 -31 57q0 24 23 34.5t53 10.5h172q57 0 88 -34l266 -328q35 -47 35 -74q0 -15 -5.5 -28.5t-11 -21.5t-18.5 -24l-258 -313q-21 -24 -41 -34.5t-55 -10.5h-174q-32 0 -56 12t-24 39zM594 180q0 24 35 62l252 301 q17 19 0 41l-250 311q-31 36 -31 57q0 24 23 34.5t53 10.5h172q57 0 88 -34l266 -328q35 -47 35 -74q0 -15 -5.5 -28.5t-11 -21.5t-18.5 -24l-258 -313q-21 -24 -41 -34.5t-55 -10.5h-174q-32 0 -56 12t-24 39z" />
<glyph unicode="&#xbc;" horiz-adv-x="2150" d="M389 1401v69q0 24 17.5 38t42.5 14h155q58 0 90.5 -31.5t32.5 -83.5v-680q0 -21 -16.5 -36t-42.5 -15h-99q-23 0 -41 15.5t-18 35.5v625h-61q-25 0 -42.5 13.5t-17.5 35.5zM545 57l727 1428q20 37 84 37h45q31 0 44.5 -14.5t0.5 -45.5l-721 -1421h2q-19 -41 -88 -41h-55 q-68 0 -39 57zM1192 279v86q0 28 1.5 42.5t10 37.5t27.5 49l209 315q23 37 59 37h115q24 0 38.5 -19.5t14.5 -46.5v-405h37q15 0 26 -11t11 -34v-86q0 -22 -11.5 -35.5t-25.5 -13.5h-37v-144q0 -21 -10.5 -36t-28.5 -15h-98q-15 0 -27 14.5t-12 36.5v144h-225q-30 0 -52 24 t-22 60zM1337 375h154v268z" />
<glyph unicode="&#xbd;" horiz-adv-x="2150" d="M381 1401v69q0 24 17.5 38t41.5 14h156q58 0 90.5 -31.5t32.5 -83.5v-680q0 -21 -17 -36t-43 -15h-98q-23 0 -41 15.5t-18 35.5v625h-62q-24 0 -41.5 13.5t-17.5 35.5zM528 57l727 1428q20 37 84 37h45q32 0 45.5 -14.5t0.5 -45.5l-721 -1421h2q-19 -41 -88 -41h-56 q-68 0 -39 57zM1233 84v129q0 84 51 135l287 205q4 6 4 68v47h-287q-14 0 -25.5 14t-11.5 35v78q0 23 11 37t26 14h332q54 0 92.5 -36.5t38.5 -104.5v-93q0 -44 -2.5 -71.5t-22 -71t-57.5 -72.5l-266 -190h2v-27h287q16 0 28.5 -14.5t12.5 -38.5v-74q0 -24 -12.5 -38.5 t-28.5 -14.5h-385q-28 0 -51 25.5t-23 58.5z" />
<glyph unicode="&#xbe;" horiz-adv-x="2150" d="M317 727v74q0 23 19 37t41 14h250v162h-205q-25 0 -43.5 15t-18.5 36v78q0 21 18.5 35t43.5 14h188v154h-229q-24 0 -44 15t-20 40v65q0 25 20 40.5t44 15.5h317q62 0 95.5 -36t33.5 -83v-209q0 -45 -32 -80h-2q25 -18 38 -42t13 -44v-215q0 -57 -44 -97t-104 -40h-319 q-22 0 -41 14.5t-19 36.5zM616 26q-2 -12 4 -17.5t13 -7t18 -1.5h56q48 0 67 41l723 1421h-2q25 60 -27 60h-45q-18 0 -27 -1.5t-20 -9.5t-20 -26l-727 -1428q-11 -19 -13 -31zM1171 279v86q0 68 43 129q35 51 104.5 157.5t104.5 157.5q23 37 76 37h115q33 0 53.5 -19.5 t20.5 -46.5v-405h16q57 0 57 -45v-86q0 -23 -16.5 -36t-40.5 -13h-16v-144q0 -21 -16.5 -36t-43.5 -15h-98q-22 0 -41 14.5t-19 36.5v144h-204q-39 0 -67 24t-28 60zM1354 375h116v205z" />
<glyph unicode="&#xbf;" horiz-adv-x="1120" d="M143 -63q0 49 2.5 75t15 66t41.5 81.5t79 94.5q34 36 168 170l43 43q126 123 126 131v64q0 24 16 43.5t40 19.5h160q23 0 37 -19t14 -44v-11q0 -47 -1.5 -76t-18 -81.5t-48.5 -83.5l-360 -383q-19 -25 -22 -40.5t-3 -78.5q0 -12 11 -20.5t26 -8.5h506q21 0 37 -18.5 t16 -46.5v-146q0 -28 -16 -46.5t-37 -18.5h-619q-87 0 -150 56.5t-63 162.5v115zM586 883v178q0 28 22.5 45.5t53.5 17.5h188q30 0 53 -17.5t23 -45.5v-178q0 -24 -21.5 -43t-54.5 -19h-188q-31 0 -53.5 19t-22.5 43z" />
<glyph unicode="&#xc0;" horiz-adv-x="1370" d="M33 66l452 1374q17 48 52 65.5t100 26.5q45 5 96 0q69 -8 103.5 -26.5t50.5 -65.5l450 -1374q6 -29 -11.5 -47.5t-43.5 -18.5h-219q-35 0 -53 45l-125 367h-400q-15 -46 -42 -124.5t-52 -152.5t-31 -90q-18 -45 -53 -45h-219q-26 0 -43.5 18.5t-11.5 47.5zM331.5 2068 q9.5 27 39.5 27h204q78 0 97 -43h-2l164 -303q12 -27 -2.5 -47.5t-47.5 -20.5h-141q-28 0 -57.5 15t-42.5 33l-197 278q-24 34 -14.5 61zM573 690h224l-111 490z" />
<glyph unicode="&#xc1;" horiz-adv-x="1331" d="M8 66l453 1374q17 48 52 65.5t99 26.5q45 5 97 0q68 -8 102.5 -26t50.5 -66l451 -1374q6 -29 -11.5 -47.5t-44.5 -18.5h-219q-35 0 -53 45l-125 367h-399q-15 -46 -42 -124.5t-52 -152.5t-31 -90q-18 -45 -53 -45h-220q-26 0 -43.5 18.5t-11.5 47.5zM504 1749l166 303h-2 q19 43 96 43h205q31 0 40 -27t-16 -61l-196 -278q-13 -18 -43 -33t-58 -15h-141q-34 0 -48.5 20.5t-2.5 47.5zM549 690h223l-110 490z" />
<glyph unicode="&#xc2;" horiz-adv-x="1370" d="M33 66l452 1374q17 48 52 65.5t100 26.5q45 5 96 0q69 -8 103.5 -26.5t50.5 -65.5l450 -1374q6 -29 -11.5 -47.5t-43.5 -18.5h-219q-35 0 -53 45l-125 367h-400q-15 -46 -42 -124.5t-52 -152.5t-31 -90q-18 -45 -53 -45h-219q-26 0 -43.5 18.5t-11.5 47.5zM338 1661 q-17 25 0 57l158 285q13 23 36.5 38t51.5 15h213q30 0 53.5 -15t34.5 -38l155 -285q17 -32 0 -57t-57 -25h-143q-75 0 -92 45l-58 177l-61 -177q-19 -45 -88 -45h-146q-40 0 -57 25zM573 690h224l-111 490z" />
<glyph unicode="&#xc3;" horiz-adv-x="1370" d="M33 66l452 1374q17 48 52 65.5t100 26.5q45 5 96 0q69 -8 103.5 -26.5t50.5 -65.5l450 -1374q6 -29 -11.5 -47.5t-43.5 -18.5h-219q-35 0 -53 45l-125 367h-400q-15 -46 -42 -124.5t-52 -152.5t-31 -90q-18 -45 -53 -45h-219q-26 0 -43.5 18.5t-11.5 47.5zM389 1704v102 q0 154 160 154h219q2 6 2 18q4 23 8 35.5t19.5 23.5t42.5 11h63q86 0 86 -76v-96q0 -81 -41.5 -115.5t-122.5 -34.5h-217q0 -2 -1 -9t-1 -9q-3 -27 -6 -40t-18 -25.5t-43 -12.5h-66q-84 0 -84 74zM573 690h224l-111 490z" />
<glyph unicode="&#xc4;" horiz-adv-x="1370" d="M33 66l452 1374q17 48 52 65.5t100 26.5q45 5 96 0q69 -8 103.5 -26.5t50.5 -65.5l450 -1374q6 -29 -11.5 -47.5t-43.5 -18.5h-219q-35 0 -53 45l-125 367h-400q-15 -46 -42 -124.5t-52 -152.5t-31 -90q-18 -45 -53 -45h-219q-26 0 -43.5 18.5t-11.5 47.5zM305 1737v174 q0 25 22 44t54 19h188q33 0 54.5 -18.5t21.5 -44.5v-174q0 -25 -24.5 -44.5t-51.5 -19.5h-188q-30 0 -53 19t-23 45zM573 690h224l-111 490zM733 1737v174q0 25 22 44t54 19h188q33 0 54.5 -18.5t21.5 -44.5v-174q0 -25 -24.5 -44.5t-51.5 -19.5h-188q-30 0 -53 19t-23 45z " />
<glyph unicode="&#xc5;" horiz-adv-x="1370" d="M33 66l452 1374q17 48 52 65.5t100 26.5q45 5 96 0q69 -8 103.5 -26.5t50.5 -65.5l450 -1374q6 -29 -11.5 -47.5t-43.5 -18.5h-219q-35 0 -53 45l-125 367h-400q-15 -46 -42 -124.5t-52 -152.5t-31 -90q-18 -45 -53 -45h-219q-26 0 -43.5 18.5t-11.5 47.5zM426 1898 q0 106 76.5 180t185.5 74q110 0 187 -74t77 -180q0 -104 -77 -177.5t-187 -73.5q-109 0 -185.5 73.5t-76.5 177.5zM573 690h224l-111 490zM621 1898q0 -34 19 -55.5t48 -21.5q32 0 52 21.5t20 55.5q0 37 -20 59.5t-52 22.5q-29 0 -48 -22.5t-19 -59.5z" />
<glyph unicode="&#xc6;" horiz-adv-x="1820" d="M29 70l432 1312q45 140 223 140h1010q34 0 56 -21t22 -47v-145q0 -28 -24.5 -47t-53.5 -19h-570v-323h445q32 0 52.5 -20t20.5 -46v-135q0 -30 -21.5 -49t-51.5 -19h-445v-372h570q34 0 56 -19t22 -45v-149q0 -29 -24 -47.5t-54 -18.5h-715q-77 0 -132.5 52.5 t-55.5 127.5v232h-312l-114 -353q-10 -31 -29 -45t-62 -14h-194q-30 0 -45 21t-6 49zM578 705h213v520h-43q-2 0 -9 -15q-8 -24 -23 -73t-27.5 -88.5t-22.5 -67.5q-80 -248 -88 -276z" />
<glyph unicode="&#xc7;" horiz-adv-x="1226" d="M123 303v916q0 121 85.5 212t227.5 91h592q32 0 54 -21t22 -47v-145q0 -28 -23.5 -47t-52.5 -19h-524q-20 0 -31.5 -17.5t-11.5 -39.5v-852q0 -21 11 -38t30 -17h526q33 0 54.5 -19t21.5 -45v-149q0 -29 -23 -47.5t-53 -18.5h-192l-199 -274q-11 -16 -40 -30.5t-58 -14.5 h-93q-49 0 -70 33t1 73l123 213h-64q-142 0 -227.5 91t-85.5 212z" />
<glyph unicode="&#xc8;" horiz-adv-x="1155" d="M123 119v1284q0 47 35 83t94 36h772q34 0 56 -21t22 -47v-145q0 -28 -24.5 -47t-53.5 -19h-553q-10 0 -10 -20v-303h438q32 0 53 -20t21 -46v-135q0 -30 -22 -49t-52 -19h-438v-354q0 -18 10 -18h553q34 0 56 -19t22 -45v-149q0 -29 -24 -47.5t-54 -18.5h-772 q-54 0 -91.5 34t-37.5 85zM327.5 2068q9.5 27 39.5 27h204q78 0 97 -43h-2l163 -303q12 -27 -2 -47.5t-47 -20.5h-141q-28 0 -57.5 15t-42.5 33l-197 278q-24 34 -14.5 61z" />
<glyph unicode="&#xc9;" horiz-adv-x="1155" d="M143 119v1284q0 47 29.5 83t79.5 36h772q25 0 41 -21t16 -47v-145q0 -28 -17 -47t-40 -19h-553q-13 0 -22 -6t-9 -14v-303h459q24 0 38.5 -20t14.5 -46v-135q0 -30 -16 -49t-37 -19h-459v-354q0 -18 31 -18h553q25 0 41 -19t16 -45v-149q0 -30 -17 -48t-40 -18h-772 q-45 0 -77 34.5t-32 84.5zM322 1749l165 303h-2q19 43 97 43h204q31 0 40.5 -27t-15.5 -61l-197 -278q-13 -18 -42.5 -33t-57.5 -15h-141q-34 0 -48.5 20.5t-2.5 47.5z" />
<glyph unicode="&#xca;" horiz-adv-x="1155" d="M123 119v1284q0 47 35 83t94 36h772q34 0 56 -21t22 -47v-145q0 -28 -24.5 -47t-53.5 -19h-553q-10 0 -10 -20v-303h438q32 0 53 -20t21 -46v-135q0 -30 -22 -49t-52 -19h-438v-354q0 -18 10 -18h553q34 0 56 -19t22 -45v-149q0 -29 -24 -47.5t-54 -18.5h-772 q-54 0 -91.5 34t-37.5 85zM225 1718l158 285q13 23 36.5 38t51.5 15h213q30 0 53.5 -15t34.5 -38l156 -285q17 -32 -0.5 -57t-57.5 -25h-143q-75 0 -92 45l-57 177l-62 -177q-19 -45 -88 -45h-145q-40 0 -57.5 25t-0.5 57z" />
<glyph unicode="&#xcb;" horiz-adv-x="1155" d="M143 119v1284q0 47 29.5 83t79.5 36h772q25 0 41 -21t16 -47v-145q0 -28 -17 -47t-40 -19h-553q-13 0 -22 -6t-9 -14v-303h459q24 0 38.5 -20t14.5 -46v-135q0 -30 -16 -49t-37 -19h-459v-354q0 -18 31 -18h553q25 0 41 -19t16 -45v-149q0 -30 -17 -48t-40 -18h-772 q-45 0 -77 34.5t-32 84.5zM193 1737v174q0 25 21.5 44t53.5 19h189q33 0 54 -18.5t21 -44.5v-174q0 -25 -24 -44.5t-51 -19.5h-189q-30 0 -52.5 19t-22.5 45zM621 1737v174q0 25 21.5 44t53.5 19h189q33 0 54.5 -18.5t21.5 -44.5v-174q0 -25 -24.5 -44.5t-51.5 -19.5h-189 q-30 0 -52.5 19t-22.5 45z" />
<glyph unicode="&#xcc;" horiz-adv-x="665" d="M-10.5 2068q9.5 27 39.5 27h204q78 0 97 -43h-2l164 -303q12 -27 -2.5 -47.5t-47.5 -20.5h-141q-28 0 -57.5 15t-42.5 33l-197 278q-24 34 -14.5 61zM184 66q0 -30 16.5 -48t39.5 -18h186q23 0 39 20.5t16 45.5v1390q0 25 -16 45.5t-39 20.5h-186q-22 0 -39 -19t-17 -47 v-1390z" />
<glyph unicode="&#xcd;" horiz-adv-x="665" d="M162 1749l166 303h-2q19 43 96 43h205q31 0 40 -27t-16 -61l-196 -278q-13 -18 -43 -33t-58 -15h-141q-34 0 -48.5 20.5t-2.5 47.5zM164 66v1390q0 28 23 47t53 19h186q31 0 53.5 -20t22.5 -46v-1390q0 -26 -22.5 -46t-53.5 -20h-186q-31 0 -53.5 18t-22.5 48z" />
<glyph unicode="&#xce;" horiz-adv-x="665" d="M-18 1661q-17 25 0 57l157 285q13 23 36.5 38t51.5 15h213q30 0 53.5 -15t34.5 -38l156 -285q17 -32 0 -57t-57 -25h-144q-75 0 -92 45l-57 177l-62 -177q-19 -45 -88 -45h-145q-40 0 -57 25zM184 66q0 -30 16.5 -48t39.5 -18h186q23 0 39 20.5t16 45.5v1390 q0 25 -16 45.5t-39 20.5h-186q-22 0 -39 -19t-17 -47v-1390z" />
<glyph unicode="&#xcf;" horiz-adv-x="665" d="M-51 1737v174q0 25 22 44t54 19h188q33 0 54.5 -18.5t21.5 -44.5v-174q0 -25 -24.5 -44.5t-51.5 -19.5h-188q-30 0 -53 19t-23 45zM164 66v1390q0 28 23 47t53 19h186q31 0 53.5 -20t22.5 -46v-1390q0 -26 -22.5 -46t-53.5 -20h-186q-31 0 -53.5 18t-22.5 48zM377 1737 v174q0 25 22 44t54 19h188q33 0 54.5 -18.5t21.5 -44.5v-174q0 -25 -24.5 -44.5t-51.5 -19.5h-188q-30 0 -53 19t-23 45z" />
<glyph unicode="&#xd0;" horiz-adv-x="1376" d="M41 723v135q0 28 22 46t52 18h84v534q0 29 22.5 47.5t54.5 18.5h617q82 0 150.5 -29.5t112 -78t67.5 -110t24 -126.5v-834q0 -65 -24 -126.5t-67.5 -110t-112 -78t-150.5 -29.5h-617q-34 0 -55.5 20t-21.5 46v589h-84q-32 0 -53 21t-21 47zM537 279h301q34 0 52.5 23.5 t18.5 53.5v811q0 30 -18.5 54t-52.5 24h-301v-323h180q29 0 52.5 -18t23.5 -46v-135q0 -26 -22 -47t-54 -21h-180v-376z" />
<glyph unicode="&#xd1;" horiz-adv-x="1419" d="M154 94v1286q0 78 53.5 117t148.5 39h52q174 0 221 -133l317 -981h21v1005q0 37 24 66t60 29h129q33 0 59.5 -27t26.5 -68v-1269q0 -82 -56 -127t-151 -45h-39q-172 0 -232 135l-315 987h-20v-1014q0 -40 -27 -67t-59 -27h-129q-37 0 -60.5 28.5t-23.5 65.5zM410 1704 v102q0 154 159 154h219q3 9 3 18q4 24 8 36t19 23t42 11h64q86 0 86 -76v-96q0 -81 -41.5 -115.5t-122.5 -34.5h-217q0 -2 -1 -9t-1 -9q-2 -19 -4.5 -30t-9 -24t-20 -18.5t-34.5 -5.5h-65q-84 0 -84 74z" />
<glyph unicode="&#xd2;" horiz-adv-x="1337" d="M135 305q0 -122 85.5 -213.5t228.5 -91.5h438q142 0 227.5 91.5t85.5 213.5v914q0 121 -85.5 212t-227.5 91h-438q-143 0 -228.5 -90.5t-85.5 -212.5v-914zM352 2068q9 27 39 27h205q77 0 96 -43h-2l164 -303q12 -27 -2 -47.5t-47 -20.5h-141q-28 0 -58 15t-43 33 l-196 278q-24 34 -15 61zM471 319v881q0 14 11 27.5t24 13.5h325q13 0 23 -13.5t10 -27.5v-881q0 -14 -10 -27t-23 -13h-325q-13 0 -24 13t-11 27z" />
<glyph unicode="&#xd3;" horiz-adv-x="1337" d="M135 305v914q0 122 85.5 212.5t228.5 90.5h438q142 0 227.5 -91t85.5 -212v-914q0 -122 -85.5 -213.5t-227.5 -91.5h-438q-143 0 -228.5 91.5t-85.5 213.5zM471 319q0 -14 11 -27t24 -13h325q13 0 23 13t10 27v881q0 14 -10 27.5t-23 13.5h-325q-13 0 -24 -13.5 t-11 -27.5v-881zM477 1749l166 303h-2q19 43 96 43h205q30 0 39.5 -27t-14.5 -61l-197 -278q-13 -18 -42.5 -33t-57.5 -15h-142q-34 0 -48.5 20.5t-2.5 47.5z" />
<glyph unicode="&#xd4;" horiz-adv-x="1337" d="M135 305q0 -122 85.5 -213.5t228.5 -91.5h438q142 0 227.5 91.5t85.5 213.5v914q0 121 -85.5 212t-227.5 91h-438q-143 0 -228.5 -90.5t-85.5 -212.5v-914zM317 1718l158 285q13 23 36.5 38t51.5 15h213q30 0 53.5 -15t34.5 -38l156 -285q17 -32 0 -57t-57 -25h-144 q-75 0 -92 45l-57 177l-62 -177q-19 -45 -88 -45h-145q-40 0 -57.5 25t-0.5 57zM471 319v881q0 14 11 27.5t24 13.5h325q13 0 23 -13.5t10 -27.5v-881q0 -14 -10 -27t-23 -13h-325q-13 0 -24 13t-11 27z" />
<glyph unicode="&#xd5;" horiz-adv-x="1337" d="M135 305v914q0 122 85.5 212.5t228.5 90.5h438q142 0 227.5 -91t85.5 -212v-914q0 -122 -85.5 -213.5t-227.5 -91.5h-438q-143 0 -228.5 91.5t-85.5 213.5zM369 1704v102q0 154 159 154h220q2 6 2 18q4 24 8 36t19 23t42 11h64q86 0 86 -76v-96q0 -81 -41.5 -115.5 t-122.5 -34.5h-217q0 -2 -1 -9t-1 -9q-2 -19 -4.5 -30t-9 -24t-20 -18.5t-34.5 -5.5h-65q-84 0 -84 74zM471 319q0 -14 11 -27t24 -13h325q13 0 23 13t10 27v881q0 14 -10 27.5t-23 13.5h-325q-13 0 -24 -13.5t-11 -27.5v-881z" />
<glyph unicode="&#xd6;" horiz-adv-x="1337" d="M135 305v914q0 122 85.5 212.5t228.5 90.5h438q142 0 227.5 -91t85.5 -212v-914q0 -122 -85.5 -213.5t-227.5 -91.5h-438q-143 0 -228.5 91.5t-85.5 213.5zM285 1737v174q0 25 21.5 44t53.5 19h189q33 0 54.5 -18.5t21.5 -44.5v-174q0 -25 -24.5 -44.5t-51.5 -19.5h-189 q-30 0 -52.5 19t-22.5 45zM471 319q0 -14 11 -27t24 -13h325q13 0 23 13t10 27v881q0 14 -10 27.5t-23 13.5h-325q-13 0 -24 -13.5t-11 -27.5v-881zM713 1737v174q0 25 21.5 44t53.5 19h189q33 0 54.5 -18.5t21.5 -44.5v-174q0 -25 -24.5 -44.5t-51.5 -19.5h-189 q-30 0 -52.5 19t-22.5 45z" />
<glyph unicode="&#xd7;" horiz-adv-x="921" d="M83.5 459.5q-0.5 25.5 20.5 46.5h-2l156 158l-156 153q-16 18 -17 44t17 46l103 103q22 22 51.5 23.5t54.5 -23.5l148 -146l147 146q25 25 55 23.5t52 -23.5l100 -101q20 -22 19 -47t-19 -43l-156 -155l158 -156q19 -22 17.5 -46.5t-17.5 -43.5l-104 -103 q-24 -21 -55.5 -21t-49.5 21l-149 148l-148 -148q-21 -21 -50 -22t-56 22l-101 101q-18 18 -18.5 43.5z" />
<glyph unicode="&#xd8;" horiz-adv-x="1404" d="M59.5 17.5q-11.5 17.5 6.5 43.5l110 142h-2q-4 24 -4 39l2 1040q0 97 68.5 169.5t183.5 72.5l563 -2q86 0 139 -35l9 8q10 11 15 15.5t15 8t25 3.5h117q30 0 40 -19t-8 -41l-104 -133h2q6 -24 6 -49v-1038q0 -97 -69 -169.5t-183 -72.5h-569q-88 0 -141 37l-5 -6 q-23 -31 -55 -31h-123q-27 0 -38.5 17.5zM506 336h2v-17q0 -14 9 -27t22 -13h333q13 0 21 12.5t8 27.5v555zM508 657q66 91 197 267.5t198 267.5h-2v8q0 15 -8 28t-21 13h-333q-13 0 -22 -13t-9 -28v-543z" />
<glyph unicode="&#xd9;" horiz-adv-x="1314" d="M143 344q0 -88 37.5 -165.5t115 -128t179.5 -50.5h363q102 0 179.5 50.5t115.5 128t38 165.5v1112q0 26 -16.5 46t-40.5 20h-184q-23 0 -40.5 -19t-17.5 -47v-1137q0 -15 -14 -27.5t-35 -12.5h-334q-22 0 -36.5 12.5t-14.5 27.5v1137q0 26 -15.5 46t-39.5 20h-184 q-22 0 -39 -19t-17 -47v-1112zM323 2068q9 27 39 27h205q78 0 97 -43h-2l163 -303q12 -27 -2 -47.5t-47 -20.5h-141q-28 0 -57.5 15t-42.5 33l-197 278q-24 34 -15 61z" />
<glyph unicode="&#xda;" horiz-adv-x="1314" d="M123 344v1112q0 28 23 47t53 19h184q33 0 54.5 -20t21.5 -46v-1137q0 -15 8.5 -27.5t21.5 -12.5h334q12 0 20.5 13t8.5 27v1137q0 29 23 47.5t55 18.5h184q33 0 55.5 -20t22.5 -46v-1112q0 -88 -40.5 -165.5t-123 -128t-190.5 -50.5h-363q-108 0 -190 50.5t-122 128 t-40 165.5zM471 1749l166 303h-2q19 43 96 43h205q31 0 40.5 -27t-15.5 -61l-197 -278q-13 -18 -42.5 -33t-57.5 -15h-142q-34 0 -48.5 20.5t-2.5 47.5z" />
<glyph unicode="&#xdb;" horiz-adv-x="1314" d="M143 344q0 -88 37.5 -165.5t115 -128t179.5 -50.5h363q102 0 179.5 50.5t115.5 128t38 165.5v1112q0 26 -16.5 46t-40.5 20h-184q-23 0 -40.5 -19t-17.5 -47v-1137q0 -15 -14 -27.5t-35 -12.5h-334q-22 0 -36.5 12.5t-14.5 27.5v1137q0 26 -15.5 46t-39.5 20h-184 q-22 0 -39 -19t-17 -47v-1112zM322 1661q-17 25 0 57l157 285q13 23 36.5 38t51.5 15h213q30 0 53.5 -15t34.5 -38l156 -285q17 -32 0 -57t-57 -25h-144q-75 0 -92 45l-57 177l-62 -177q-19 -45 -88 -45h-145q-40 0 -57 25z" />
<glyph unicode="&#xdc;" horiz-adv-x="1314" d="M123 344v1112q0 28 23 47t53 19h184q33 0 54.5 -20t21.5 -46v-1137q0 -15 8.5 -27.5t21.5 -12.5h334q12 0 20.5 13t8.5 27v1137q0 29 23 47.5t55 18.5h184q33 0 55.5 -20t22.5 -46v-1112q0 -88 -40.5 -165.5t-123 -128t-190.5 -50.5h-363q-108 0 -190 50.5t-122 128 t-40 165.5zM287 1737v174q0 25 21.5 44t53.5 19h189q33 0 54.5 -18.5t21.5 -44.5v-174q0 -25 -24.5 -44.5t-51.5 -19.5h-189q-30 0 -52.5 19t-22.5 45zM715 1737v174q0 25 22 44t54 19h188q33 0 54.5 -18.5t21.5 -44.5v-174q0 -25 -24.5 -44.5t-51.5 -19.5h-188 q-30 0 -53 19t-23 45z" />
<glyph unicode="&#xdd;" horiz-adv-x="1363" d="M68 1454q-13 32 5.5 50t43.5 18h213q37 0 61.5 -20t30.5 -40q19 -46 115 -273t143 -341q40 97 130 306.5t130 307.5q6 20 30.5 40t61.5 20h215q25 0 43.5 -18t5.5 -50l-450 -903h2v-485q0 -26 -22.5 -46t-55.5 -20h-182q-30 0 -54 18.5t-24 47.5v485h2zM426 1749l166 303 h-2q19 43 96 43h205q30 0 39 -27t-15 -61l-196 -278q-13 -18 -43 -33t-58 -15h-141q-34 0 -48.5 20.5t-2.5 47.5z" />
<glyph unicode="&#xde;" horiz-adv-x="1130" d="M123 66v1390q0 29 22.5 47.5t53.5 18.5h184q33 0 54.5 -20t21.5 -46v-225h293q87 0 154 -41t99.5 -103t32.5 -131v-393q0 -115 -84.5 -196.5t-203.5 -81.5h-295v-219q0 -26 -21.5 -46t-54.5 -20h-180q-32 0 -54 18t-22 48zM461 565h227q3 0 7.5 7.5t4.5 17.5v338 q0 8 -4 15t-8 7h-227v-385z" />
<glyph unicode="&#xdf;" horiz-adv-x="1159" d="M123 63v1184q0 125 72.5 199t207.5 74h326q114 0 196.5 -79.5t82.5 -191.5v-254q0 -122 -109 -182h-2q82 -23 126 -92t44 -137v-318q0 -106 -75.5 -186t-200.5 -80h-199q-28 0 -51 17.5t-23 45.5v142q0 26 20.5 44.5t53.5 18.5h96q19 0 34 19t15 41v243q0 44 -29.5 71.5 t-74.5 27.5h-21q-67 0 -67 51v143q0 54 67 54h29q39 0 39 47v231q0 22 -13.5 37.5t-29.5 15.5h-160q-13 0 -19.5 -8t-6.5 -18v-1160q0 -26 -20.5 -44.5t-53.5 -18.5h-180q-28 0 -51 17.5t-23 45.5z" />
<glyph unicode="&#xe0;" horiz-adv-x="1073" d="M102 207v203q0 27 1 43t5 44.5t15 48.5t28.5 43t48 40t70.5 28l342 76q11 5 11 29v67q0 12 -5.5 19.5t-13.5 7.5h-371q-29 0 -50 17t-21 42v152q0 21 21.5 40t49.5 19h467q65 0 120 -24t92.5 -79t37.5 -132v-680q0 -96 -57.5 -153.5t-161.5 -57.5h-403q-91 0 -158.5 53 t-67.5 154zM235 1673q9 27 39 27h205q77 0 96 -43h-2l164 -303q12 -27 -2 -47.5t-47 -20.5h-141q-28 0 -58.5 14.5t-42.5 32.5l-196 279q-24 34 -15 61zM426 287q0 -19 10 -19h180q11 0 11 19v223l-181 -37q-9 -4 -14.5 -18.5t-5.5 -24.5v-143z" />
<glyph unicode="&#xe1;" horiz-adv-x="1073" d="M102 207v203q0 27 1 43t5 44.5t15 48.5t28.5 43t48 40t70.5 28l342 76q11 5 11 29v67q0 12 -5.5 19.5t-13.5 7.5h-371q-29 0 -50 17t-21 42v152q0 21 21.5 40t49.5 19h467q65 0 120 -24t92.5 -79t37.5 -132v-680q0 -96 -57.5 -153.5t-161.5 -57.5h-403q-91 0 -158.5 53 t-67.5 154zM344 1354l166 303h-2q19 43 96 43h205q30 0 39.5 -27t-14.5 -61l-197 -279q-13 -18 -42.5 -32.5t-57.5 -14.5h-142q-34 0 -48.5 20.5t-2.5 47.5zM426 287q0 -19 10 -19h180q11 0 11 19v223l-181 -37q-9 -4 -14.5 -18.5t-5.5 -24.5v-143z" />
<glyph unicode="&#xe2;" horiz-adv-x="1073" d="M102 207v203q0 27 1 43t5 44.5t15 48.5t28.5 43t48 40t70.5 28l342 76q11 5 11 29v67q0 12 -5.5 19.5t-13.5 7.5h-371q-29 0 -50 17t-21 42v152q0 21 21.5 40t49.5 19h467q65 0 120 -24t92.5 -79t37.5 -132v-680q0 -96 -57.5 -153.5t-161.5 -57.5h-403q-91 0 -158.5 53 t-67.5 154zM184 1323l158 285q13 23 36.5 38t51.5 15h213q30 0 53.5 -15t34.5 -38l156 -285q17 -32 -0.5 -57t-57.5 -25h-143q-75 0 -92 45l-57 176l-62 -176q-19 -45 -88 -45h-145q-40 0 -57.5 25t-0.5 57zM426 287q0 -19 10 -19h180q11 0 11 19v223l-181 -37 q-9 -4 -14.5 -18.5t-5.5 -24.5v-143z" />
<glyph unicode="&#xe3;" horiz-adv-x="1073" d="M102 207v203q0 27 1 43t5 44.5t15 48.5t28.5 43t48 40t70.5 28l342 76q11 5 11 29v67q0 12 -5.5 19.5t-13.5 7.5h-371q-29 0 -50 17t-21 42v152q0 21 21.5 40t49.5 19h467q65 0 120 -24t92.5 -79t37.5 -132v-680q0 -96 -57.5 -153.5t-161.5 -57.5h-403q-91 0 -158.5 53 t-67.5 154zM236 1309v102q0 154 159 154h219q2 6 2 18q4 23 8 35.5t19.5 23.5t42.5 11h64q86 0 86 -76v-96q0 -81 -41.5 -115.5t-122.5 -34.5h-217q0 -2 -1 -9t-1 -9q-2 -19 -4.5 -30t-9 -24t-20 -18.5t-34.5 -5.5h-66q-83 0 -83 74zM426 287q0 -19 10 -19h180q11 0 11 19 v223l-181 -37q-9 -4 -14.5 -18.5t-5.5 -24.5v-143z" />
<glyph unicode="&#xe4;" horiz-adv-x="1073" d="M102 207v203q0 27 1 43t5 44.5t15 48.5t28.5 43t48 40t70.5 28l342 76q11 5 11 29v67q0 12 -5.5 19.5t-13.5 7.5h-371q-29 0 -50 17t-21 42v152q0 21 21.5 40t49.5 19h467q65 0 120 -24t92.5 -79t37.5 -132v-680q0 -96 -57.5 -153.5t-161.5 -57.5h-403q-91 0 -158.5 53 t-67.5 154zM152 1284v174q0 25 21.5 44.5t53.5 19.5h189q33 0 54.5 -19t21.5 -45v-174q0 -25 -24 -44t-52 -19h-189q-30 0 -52.5 18.5t-22.5 44.5zM426 287q0 -19 10 -19h180q11 0 11 19v223l-181 -37q-9 -4 -14.5 -18.5t-5.5 -24.5v-143zM580 1284v174q0 25 21.5 44.5 t53.5 19.5h189q33 0 54.5 -19t21.5 -45v-174q0 -25 -24 -44t-52 -19h-189q-30 0 -52.5 18.5t-22.5 44.5z" />
<glyph unicode="&#xe5;" horiz-adv-x="1073" d="M102 207v203q0 27 1 43t5 44.5t15 48.5t28.5 43t48 40t70.5 28l342 76q11 5 11 29v67q0 12 -5.5 19.5t-13.5 7.5h-371q-29 0 -50 17t-21 42v152q0 21 21.5 40t49.5 19h467q65 0 120 -24t92.5 -79t37.5 -132v-680q0 -96 -57.5 -153.5t-161.5 -57.5h-403q-91 0 -158.5 53 t-67.5 154zM272 1503q0 106 77 180t186 74q110 0 187 -74t77 -180q0 -104 -77 -178t-187 -74q-109 0 -186 74t-77 178zM426 287q0 -19 10 -19h180q11 0 11 19v223l-181 -37q-9 -4 -14.5 -18.5t-5.5 -24.5v-143zM467 1503q0 -34 19.5 -56t48.5 -22q32 0 51.5 22t19.5 56 q0 37 -19.5 59.5t-51.5 22.5q-30 0 -49 -23t-19 -59z" />
<glyph unicode="&#xe6;" horiz-adv-x="1593" d="M102 207v203q0 27 1 43t5 44.5t15 48.5t28.5 43t48 40t70.5 28l342 76q11 5 11 29v67q0 27 -15 27h-375q-29 0 -50 17t-21 42v152q0 21 21.5 40t49.5 19h433q22 0 53.5 -13.5t50.5 -39.5q18 25 51.5 39t57.5 14h387q91 0 158 -52.5t67 -153.5v-203q0 -27 -1 -43t-5 -45 t-15 -48.5t-28.5 -42.5t-48 -40.5t-70.5 -28.5l-360 -76q-11 -5 -11 -28v-68q0 -27 15 -27h387q29 0 50 -17t21 -42v-152q0 -21 -21.5 -40t-49.5 -19h-445q-26 0 -58.5 16.5t-47.5 36.5q-20 -20 -51.5 -36.5t-55.5 -16.5h-368q-91 0 -158.5 53t-67.5 154zM426 287 q0 -19 10 -19h180q4 0 11 11h-2v231l-179 -37q-9 -4 -14.5 -18.5t-5.5 -24.5v-143zM950 618l197 37q9 4 14.5 18.5t5.5 24.5v142q0 7 -3.5 12.5t-6.5 5.5h-199q-3 0 -8 -10v-230z" />
<glyph unicode="&#xe7;" horiz-adv-x="956" d="M123 268v590q0 106 76 187t202 81h422q31 0 51.5 -18.5t20.5 -44.5v-143q0 -28 -22 -46t-50 -18h-315q-28 0 -42.5 -15.5t-14.5 -41.5v-475q0 -56 55 -56h317q31 0 51.5 -18.5t20.5 -44.5v-142q0 -28 -22 -45.5t-50 -17.5h-123l-198 -274q-11 -16 -40.5 -30.5 t-58.5 -14.5h-92q-49 0 -70 33t1 73l123 215h8q-105 9 -177.5 85t-72.5 181z" />
<glyph unicode="&#xe8;" horiz-adv-x="1091" d="M123 236v679q0 96 57.5 153.5t161.5 57.5h422q91 0 158 -52.5t67 -153.5v-203q0 -27 -1 -43t-5 -45t-15 -48.5t-28.5 -42.5t-48 -40.5t-70.5 -28.5l-352 -74q-18 -4 -18 -30v-68q0 -12 6 -19.5t14 -7.5h381q29 0 50.5 -17t21.5 -42v-152q0 -21 -22 -40t-50 -19h-479 q-64 0 -119.5 24.5t-93 79.5t-37.5 132zM231 1673q9 27 39 27h205q77 0 96 -43h-2l164 -303q12 -27 -2 -47.5t-47 -20.5h-141q-28 0 -58.5 14.5t-42.5 32.5l-196 279q-24 34 -15 61zM446 618l193 35q27 6 27 45v138q0 8 -5 15t-12 7h-186q-7 0 -12 -7t-5 -15v-218z" />
<glyph unicode="&#xe9;" horiz-adv-x="1091" d="M123 236v679q0 96 57.5 153.5t161.5 57.5h422q91 0 158 -52.5t67 -153.5v-203q0 -27 -1 -43t-5 -45t-15 -48.5t-28.5 -42.5t-48 -40.5t-70.5 -28.5l-352 -74q-18 -4 -18 -30v-68q0 -12 6 -19.5t14 -7.5h381q29 0 50.5 -17t21.5 -42v-152q0 -21 -22 -40t-50 -19h-479 q-64 0 -119.5 24.5t-93 79.5t-37.5 132zM371 1354l166 303h-2q19 43 96 43h205q30 0 39 -27t-15 -61l-196 -279q-12 -18 -42.5 -32.5t-58.5 -14.5h-141q-34 0 -48.5 20.5t-2.5 47.5zM446 618l193 35q27 6 27 45v138q0 8 -5 15t-12 7h-186q-7 0 -12 -7t-5 -15v-218z" />
<glyph unicode="&#xea;" horiz-adv-x="1091" d="M123 236v679q0 96 57.5 153.5t161.5 57.5h422q91 0 158 -52.5t67 -153.5v-203q0 -27 -1 -43t-5 -45t-15 -48.5t-28.5 -42.5t-48 -40.5t-70.5 -28.5l-352 -74q-18 -4 -18 -30v-68q0 -12 6 -19.5t14 -7.5h381q29 0 50.5 -17t21.5 -42v-152q0 -21 -22 -40t-50 -19h-479 q-64 0 -119.5 24.5t-93 79.5t-37.5 132zM195 1266q-17 25 0 57l157 285q13 23 36.5 38t51.5 15h213q30 0 53.5 -15t34.5 -38l156 -285q17 -32 0 -57t-57 -25h-144q-75 0 -92 45l-57 178l-62 -178q-19 -45 -88 -45h-145q-40 0 -57 25zM446 618l193 35q27 6 27 45v138 q0 8 -5 15t-12 7h-186q-7 0 -12 -7t-5 -15v-218z" />
<glyph unicode="&#xeb;" horiz-adv-x="1091" d="M123 236v679q0 96 57.5 153.5t161.5 57.5h422q91 0 158 -52.5t67 -153.5v-203q0 -27 -1 -43t-5 -45t-15 -48.5t-28.5 -42.5t-48 -40.5t-70.5 -28.5l-352 -74q-18 -4 -18 -30v-68q0 -12 6 -19.5t14 -7.5h381q29 0 50.5 -17t21.5 -42v-152q0 -21 -22 -40t-50 -19h-479 q-64 0 -119.5 24.5t-93 79.5t-37.5 132zM162 1284v174q0 25 22 44.5t54 19.5h188q33 0 54.5 -19t21.5 -45v-174q0 -25 -24 -44t-52 -19h-188q-30 0 -53 18.5t-23 44.5zM446 618l193 35q27 6 27 45v138q0 8 -5 15t-12 7h-186q-7 0 -12 -7t-5 -15v-218zM590 1284v174 q0 25 22 44.5t54 19.5h188q33 0 54.5 -19t21.5 -45v-174q0 -25 -24 -44t-52 -19h-188q-30 0 -53 18.5t-23 44.5z" />
<glyph unicode="&#xec;" horiz-adv-x="626" d="M-25 1673q9 27 39 27h205q77 0 96 -43h-2l164 -303q12 -27 -2 -47.5t-47 -20.5h-141q-28 0 -58.5 14.5t-42.5 32.5l-196 279q-24 34 -15 61zM164 66q0 -30 16 -48t39 -18h187q23 0 39 20.5t16 45.5v995q0 25 -16 45t-39 20h-187q-22 0 -38.5 -18.5t-16.5 -46.5v-995z" />
<glyph unicode="&#xed;" horiz-adv-x="626" d="M141 1354l166 303h-2q19 43 96 43h205q30 0 39.5 -27t-14.5 -61l-197 -279q-13 -18 -42.5 -32.5t-57.5 -14.5h-141q-35 0 -49.5 20.5t-2.5 47.5zM143 66v995q0 28 23 46.5t53 18.5h187q31 0 53 -20t22 -45v-995q0 -26 -22 -46t-53 -20h-187q-31 0 -53.5 18t-22.5 48z" />
<glyph unicode="&#xee;" horiz-adv-x="626" d="M-37 1266q-17 25 0 57l158 285q13 23 36.5 38t51.5 15h213q30 0 53.5 -15t34.5 -38l156 -285q17 -32 -0.5 -57t-57.5 -25h-143q-75 0 -92 45l-58 176l-61 -176q-19 -45 -88 -45h-146q-40 0 -57 25zM164 66q0 -30 16 -48t39 -18h187q23 0 39 20.5t16 45.5v995q0 25 -16 45 t-39 20h-187q-22 0 -38.5 -18.5t-16.5 -46.5v-995z" />
<glyph unicode="&#xef;" horiz-adv-x="626" d="M-70 1284v174q0 25 22 44.5t54 19.5h189q33 0 54 -19t21 -45v-174q0 -25 -24 -44t-51 -19h-189q-30 0 -53 18.5t-23 44.5zM143 66v995q0 28 23 46.5t53 18.5h187q31 0 53 -20t22 -45v-995q0 -26 -22 -46t-53 -20h-187q-31 0 -53.5 18t-22.5 48zM358 1284v174 q0 25 22 44.5t54 19.5h189q33 0 54 -19t21 -45v-174q0 -25 -24 -44t-51 -19h-189q-30 0 -53 18.5t-23 44.5z" />
<glyph unicode="&#xf0;" horiz-adv-x="1130" d="M123 266v592q0 112 81.5 190t196.5 78h252q-3 31 -14.5 59.5t-42.5 80.5q-17 -9 -46 -25.5t-53 -30t-46 -24.5q-20 -13 -44 -4.5t-24 37.5v84q0 47 43 65h-2l76 43h-4l-84 180q-10 26 5.5 46t55.5 20h160q21 0 44 -10.5t30 -26.5h-2q8 -16 25.5 -47t25.5 -47 q152 86 164 92q22 14 48.5 6t26.5 -41v-80q0 -42 -37 -61h3l-113 -68h2q60 -112 91 -175.5t46 -121.5t17 -89t2 -107v-734q0 -67 -42 -107t-116 -40h-449q-90 0 -154 39.5t-93 98.5t-29 128zM453 293q0 -25 12 -25h197q6 0 10 8.5t4 16.5v563h-211q-12 0 -12 -25v-538z" />
<glyph unicode="&#xf1;" horiz-adv-x="1124" d="M143 63v824q0 95 63.5 167t168.5 72h377q105 0 168 -72t63 -167l-2 -824q0 -28 -16 -45.5t-37 -17.5h-180q-24 0 -39 18.5t-15 44.5v768q0 8 -10.5 16.5t-24.5 8.5h-194q-14 0 -23.5 -8.5t-9.5 -16.5v-768q0 -28 -16 -45.5t-37 -17.5h-182q-24 0 -39 18.5t-15 44.5z M262 1309v102q0 154 160 154h219q2 6 2 18q4 23 8 35.5t19.5 23.5t42.5 11h63q86 0 86 -76v-96q0 -81 -41.5 -115.5t-122.5 -34.5h-217q0 -2 -1 -9t-1 -9q-3 -27 -6 -40t-18 -25.5t-43 -12.5h-66q-84 0 -84 74z" />
<glyph unicode="&#xf2;" horiz-adv-x="1128" d="M123 266v592q0 112 81.5 190t196.5 78h324q103 0 192 -83.5t89 -184.5v-592q0 -108 -72.5 -187t-198.5 -79h-336q-90 0 -154 39.5t-93 98.5t-29 128zM247.5 1673q9.5 27 39.5 27h205q77 0 96 -43h-2l164 -303q12 -27 -2.5 -47.5t-47.5 -20.5h-141q-28 0 -57.5 14.5 t-42.5 32.5l-197 279q-24 34 -14.5 61zM453 293q0 -9 6 -17t16 -8h176q11 0 18 8t7 17v538q0 9 -7 17t-18 8h-176q-10 0 -16 -8t-6 -17v-538z" />
<glyph unicode="&#xf3;" horiz-adv-x="1128" d="M123 266v592q0 112 81.5 190t196.5 78h324q103 0 192 -83.5t89 -184.5v-592q0 -108 -72.5 -187t-198.5 -79h-336q-90 0 -154 39.5t-93 98.5t-29 128zM389 1354l166 303h-2q19 43 96 43h205q31 0 40.5 -27t-15.5 -61l-197 -279q-13 -18 -42.5 -32.5t-57.5 -14.5h-142 q-34 0 -48.5 20.5t-2.5 47.5zM453 293q0 -9 6 -17t16 -8h176q11 0 18 8t7 17v538q0 9 -7 17t-18 8h-176q-10 0 -16 -8t-6 -17v-538z" />
<glyph unicode="&#xf4;" horiz-adv-x="1128" d="M123 266v592q0 112 81.5 190t196.5 78h324q103 0 192 -83.5t89 -184.5v-592q0 -108 -72.5 -187t-198.5 -79h-336q-90 0 -154 39.5t-93 98.5t-29 128zM213 1266q-17 25 0 57l158 285q13 23 36.5 38t51.5 15h213q30 0 53.5 -15t34.5 -38l155 -285q17 -32 0 -57t-57 -25 h-143q-75 0 -92 45l-58 176l-61 -176q-19 -45 -88 -45h-146q-40 0 -57 25zM453 293q0 -9 6 -17t16 -8h176q11 0 18 8t7 17v538q0 9 -7 17t-18 8h-176q-10 0 -16 -8t-6 -17v-538z" />
<glyph unicode="&#xf5;" horiz-adv-x="1128" d="M123 266v592q0 112 81.5 190t196.5 78h324q103 0 192 -83.5t89 -184.5v-592q0 -108 -72.5 -187t-198.5 -79h-336q-90 0 -154 39.5t-93 98.5t-29 128zM264 1309v102q0 154 160 154h219q2 6 2 18q4 23 8 35.5t19.5 23.5t42.5 11h63q86 0 86 -76v-96q0 -81 -41.5 -115.5 t-122.5 -34.5h-217q0 -2 -1 -9t-1 -9q-3 -27 -6 -40t-18 -25.5t-43 -12.5h-66q-84 0 -84 74zM453 293q0 -9 6 -17t16 -8h176q11 0 18 8t7 17v538q0 9 -7 17t-18 8h-176q-10 0 -16 -8t-6 -17v-538z" />
<glyph unicode="&#xf6;" horiz-adv-x="1128" d="M123 266v592q0 112 81.5 190t196.5 78h324q103 0 192 -83.5t89 -184.5v-592q0 -108 -72.5 -187t-198.5 -79h-336q-90 0 -154 39.5t-93 98.5t-29 128zM180 1284v174q0 25 22 44.5t54 19.5h188q33 0 54.5 -19t21.5 -45v-174q0 -25 -24 -44t-52 -19h-188q-30 0 -53 18.5 t-23 44.5zM453 293q0 -9 6 -17t16 -8h176q11 0 18 8t7 17v538q0 9 -7 17t-18 8h-176q-10 0 -16 -8t-6 -17v-538zM608 1284v174q0 25 22 44.5t54 19.5h188q33 0 54.5 -19t21.5 -45v-174q0 -25 -24 -44t-52 -19h-188q-30 0 -53 18.5t-23 44.5z" />
<glyph unicode="&#xf7;" horiz-adv-x="1044" d="M92 506v143q0 24 21 43t53 19h715q31 0 51 -19t20 -43v-143q0 -28 -21.5 -46t-49.5 -18h-715q-30 0 -52 18t-22 46zM342 63v199q0 24 21.5 43t54.5 19h188q31 0 53.5 -19t22.5 -43v-199q0 -28 -23 -45.5t-53 -17.5h-188q-31 0 -53.5 17.5t-22.5 45.5zM342 897v199 q0 24 21.5 42.5t54.5 18.5h188q32 0 54 -18.5t22 -42.5v-199q0 -28 -23 -45.5t-53 -17.5h-188q-31 0 -53.5 17.5t-22.5 45.5z" />
<glyph unicode="&#xf8;" horiz-adv-x="1107" d="M33 -35q0 20 24 55l95 144h-2q-17 56 -17 102v592q0 112 82 190t197 78h323q37 0 74 -12q3 4 14 21t17 24q40 58 69 58h95q47 0 61 -19.5t-4 -44.5l-100 -147q55 -75 55 -148v-592q0 -108 -72.5 -187t-198.5 -79h-335q-80 0 -127 23q-7 -10 -25 -32t-25 -32 q-6 -9 -9.5 -13t-16 -9t-31.5 -5h-80q-63 0 -63 33zM463 283h2q4 -15 10 -15h197q6 0 10 8.5t4 16.5v315q-197 -287 -223 -325zM463 614q28 41 84 121t84 121h-156q-12 0 -12 -25v-217z" />
<glyph unicode="&#xf9;" horiz-adv-x="1124" d="M123 268q0 -107 76.5 -187.5t203.5 -80.5h318q127 0 203.5 80.5t76.5 187.5v795q0 26 -20 44.5t-53 18.5h-185q-29 0 -50 -17.5t-21 -45.5v-770q0 -8 -6.5 -16.5t-14.5 -8.5h-180q-8 0 -14 8.5t-6 16.5v770q0 26 -20.5 44.5t-53.5 18.5h-178q-31 0 -53.5 -17.5 t-22.5 -45.5v-795zM247.5 1673q9.5 27 39.5 27h205q77 0 96 -43h-2l164 -303q12 -27 -2.5 -47.5t-47.5 -20.5h-141q-28 0 -57.5 14.5t-42.5 32.5l-197 279q-24 34 -14.5 61z" />
<glyph unicode="&#xfa;" horiz-adv-x="1124" d="M123 268v795q0 28 22.5 45.5t53.5 17.5h178q33 0 53.5 -18.5t20.5 -44.5v-770q0 -8 6 -16.5t14 -8.5h180q8 0 14.5 8.5t6.5 16.5v770q0 28 21 45.5t50 17.5h185q33 0 53 -18.5t20 -44.5v-795q0 -107 -76.5 -187.5t-203.5 -80.5h-318q-127 0 -203.5 80.5t-76.5 187.5z M373 1354l166 303h-2q19 43 96 43h205q30 0 39 -27t-15 -61l-196 -279q-12 -18 -42.5 -32.5t-58.5 -14.5h-141q-34 0 -48.5 20.5t-2.5 47.5z" />
<glyph unicode="&#xfb;" horiz-adv-x="1124" d="M123 268q0 -107 76.5 -187.5t203.5 -80.5h318q127 0 203.5 80.5t76.5 187.5v795q0 26 -20 44.5t-53 18.5h-185q-29 0 -50 -17.5t-21 -45.5v-770q0 -8 -6.5 -16.5t-14.5 -8.5h-180q-8 0 -14 8.5t-6 16.5v770q0 26 -20.5 44.5t-53.5 18.5h-178q-31 0 -53.5 -17.5 t-22.5 -45.5v-795zM211 1266q-17 25 0 57l158 285q13 23 36.5 38t51.5 15h213q30 0 53.5 -15t34.5 -38l155 -285q17 -32 0 -57t-57 -25h-143q-75 0 -92 45l-58 176l-61 -176q-19 -45 -88 -45h-146q-40 0 -57 25z" />
<glyph unicode="&#xfc;" horiz-adv-x="1124" d="M123 268v795q0 28 22.5 45.5t53.5 17.5h178q33 0 53.5 -18.5t20.5 -44.5v-770q0 -8 4 -16.5t10 -8.5h192q6 0 10.5 8.5t4.5 16.5v770q0 28 21 45.5t50 17.5h185q33 0 53 -18.5t20 -44.5v-795q0 -107 -76.5 -187.5t-203.5 -80.5h-318q-127 0 -203.5 80.5t-76.5 187.5z M178 1284v174q0 25 22 44.5t54 19.5h188q33 0 54.5 -19t21.5 -45v-174q0 -25 -24 -44t-52 -19h-188q-30 0 -53 18.5t-23 44.5zM606 1284v174q0 25 22 44.5t54 19.5h188q33 0 54.5 -19t21.5 -45v-174q0 -25 -24 -44t-52 -19h-188q-30 0 -53 18.5t-23 44.5z" />
<glyph unicode="&#xfd;" horiz-adv-x="1155" d="M49 1042q-14 40 5 62t69 22h158q102 0 116 -65l185 -719q16 67 80.5 323.5t97.5 395.5q17 65 117 65h155q100 0 76 -84l-449 -1376q-11 -36 -33.5 -51.5t-76.5 -15.5h-148q-99 0 -75 84l114 329q-64 38 -84 90zM389 1354l166 303h-2q19 43 96 43h205q31 0 40.5 -27 t-15.5 -61l-197 -279q-13 -18 -42.5 -32.5t-57.5 -14.5h-142q-34 0 -48.5 20.5t-2.5 47.5z" />
<glyph unicode="&#xfe;" horiz-adv-x="1101" d="M123 -338v1796q0 28 24 46t52 18h180q32 0 52 -19t20 -45v-332h284q124 0 199.5 -80t75.5 -186v-592q0 -110 -82 -189t-197 -79h-280v-338q0 -25 -20 -44t-52 -19h-180q-28 0 -52 17.5t-24 45.5zM453 268h215q5 0 9.5 7.5t4.5 17.5v541q0 8 -4 15t-8 7h-217v-588z" />
<glyph unicode="&#xff;" horiz-adv-x="1155" d="M49 1042q-14 40 5 62t69 22h158q102 0 116 -65l185 -719q16 67 80.5 323.5t97.5 395.5q17 65 117 65h155q100 0 76 -84l-449 -1376q-11 -36 -33.5 -51.5t-76.5 -15.5h-148q-99 0 -75 84l114 329h6q-69 35 -90 90zM193 1284v174q0 25 21.5 44.5t53.5 19.5h189q33 0 54 -19 t21 -45v-174q0 -25 -24 -44t-51 -19h-189q-30 0 -52.5 18.5t-22.5 44.5zM621 1284v174q0 25 21.5 44.5t53.5 19.5h189q33 0 54.5 -19t21.5 -45v-174q0 -25 -24 -44t-52 -19h-189q-30 0 -52.5 18.5t-22.5 44.5z" />
<glyph unicode="&#x152;" horiz-adv-x="1900" d="M133 242v1040q0 97 68.5 169.5t183.5 72.5l502 -2q83 0 147 -64q53 64 123 64h615q34 0 55.5 -21t21.5 -47v-145q0 -28 -24 -47t-53 -19h-555q-11 0 -11 -20v-303h441q32 0 52.5 -20t20.5 -46v-135q0 -30 -21.5 -49t-51.5 -19h-441v-354q0 -18 11 -18h555q34 0 55.5 -19 t21.5 -45v-149q0 -29 -23.5 -47.5t-53.5 -18.5h-615q-62 0 -123 61q-26 -24 -67 -42.5t-80 -18.5h-502q-115 0 -183.5 72.5t-68.5 169.5zM471 319q0 -14 9 -27t22 -13h334q13 0 20.5 12.5t7.5 27.5v881q0 15 -7.5 28t-20.5 13h-334q-13 0 -22 -13t-9 -28v-881z" />
<glyph unicode="&#x153;" horiz-adv-x="1642" d="M102 266v592q0 112 82 190t197 78h293q26 0 62.5 -16.5t56.5 -42.5q22 25 61 42t70 17h391q91 0 158 -52.5t67 -153.5v-203q0 -27 -1 -43t-5 -45t-15 -48.5t-28.5 -42.5t-48 -40.5t-70.5 -28.5l-354 -76q-17 -3 -17 -28v-68q0 -12 5.5 -19.5t13.5 -7.5h383q29 0 50.5 -17 t21.5 -42v-152q0 -21 -22 -40t-50 -19h-449q-37 0 -74.5 19t-58.5 40q-17 -20 -58 -39.5t-79 -19.5h-305q-90 0 -154.5 39.5t-93.5 98.5t-29 128zM432 293q0 -8 6.5 -16.5t12.5 -8.5h184q6 0 13 9t7 16v538q0 7 -8 16t-14 9h-182q-6 0 -12.5 -8.5t-6.5 -16.5v-538zM997 618 l193 37q27 6 27 43v142q0 7 -5.5 12.5t-9.5 5.5h-190q-5 0 -10 -5.5t-5 -12.5v-222z" />
<glyph unicode="&#x178;" horiz-adv-x="1363" d="M68 1454q-13 32 5.5 50t43.5 18h213q37 0 61.5 -20t30.5 -40q19 -46 115 -273t143 -341q40 97 130 306.5t130 307.5q6 20 30.5 40t61.5 20h215q25 0 43.5 -18t5.5 -50l-450 -903h2v-485q0 -26 -22.5 -46t-55.5 -20h-182q-30 0 -54 18.5t-24 47.5v485h2zM297 1737v174 q0 25 22 44t54 19h188q33 0 54.5 -18.5t21.5 -44.5v-174q0 -25 -24.5 -44.5t-51.5 -19.5h-188q-30 0 -53 19t-23 45zM725 1737v174q0 25 22 44t54 19h188q33 0 54.5 -18.5t21.5 -44.5v-174q0 -25 -24.5 -44.5t-51.5 -19.5h-188q-30 0 -53 19t-23 45z" />
<glyph unicode="&#x2c6;" horiz-adv-x="944" d="M121 1266q-17 25 0 57l158 285q13 23 36.5 38t51.5 15h213q30 0 53.5 -15t34.5 -38l155 -285q17 -32 0 -57t-57 -25h-143q-76 0 -93 45l-57 178l-61 -178q-19 -45 -88 -45h-146q-40 0 -57 25z" />
<glyph unicode="&#x2dc;" horiz-adv-x="845" d="M123 1309v102q0 154 160 154h219q2 6 2 18q4 24 8 36t19 23t42 11h64q86 0 86 -76v-96q0 -81 -41.5 -115.5t-122.5 -34.5h-217q0 -2 -1 -9t-1 -9q-2 -19 -4.5 -30t-9 -24t-20 -18.5t-34.5 -5.5h-65q-84 0 -84 74z" />
<glyph unicode="&#x2000;" horiz-adv-x="1076" />
<glyph unicode="&#x2001;" horiz-adv-x="2152" />
<glyph unicode="&#x2002;" horiz-adv-x="1076" />
<glyph unicode="&#x2003;" horiz-adv-x="2152" />
<glyph unicode="&#x2004;" horiz-adv-x="717" />
<glyph unicode="&#x2005;" horiz-adv-x="538" />
<glyph unicode="&#x2006;" horiz-adv-x="358" />
<glyph unicode="&#x2007;" horiz-adv-x="358" />
<glyph unicode="&#x2008;" horiz-adv-x="269" />
<glyph unicode="&#x2009;" horiz-adv-x="430" />
<glyph unicode="&#x200a;" horiz-adv-x="119" />
<glyph unicode="&#x2010;" horiz-adv-x="968" d="M113 502v155q0 25 20.5 43.5t52.5 18.5h598q31 0 51.5 -19t20.5 -43v-155q0 -28 -22 -46t-50 -18h-598q-30 0 -51.5 18t-21.5 46z" />
<glyph unicode="&#x2011;" horiz-adv-x="968" d="M113 502v155q0 25 20.5 43.5t52.5 18.5h598q31 0 51.5 -19t20.5 -43v-155q0 -28 -22 -46t-50 -18h-598q-30 0 -51.5 18t-21.5 46z" />
<glyph unicode="&#x2012;" horiz-adv-x="968" d="M113 502v155q0 25 20.5 43.5t52.5 18.5h598q31 0 51.5 -19t20.5 -43v-155q0 -28 -22 -46t-50 -18h-598q-30 0 -51.5 18t-21.5 46z" />
<glyph unicode="&#x2013;" horiz-adv-x="1198" d="M90 518v129q0 26 20 46t52 20h870q32 0 53 -20t21 -46v-129q0 -28 -22 -46.5t-52 -18.5h-870q-29 0 -50.5 18.5t-21.5 46.5z" />
<glyph unicode="&#x2014;" horiz-adv-x="1486" d="M90 516v129q0 26 20 46t52 20h1159q32 0 53 -20t21 -46v-129q0 -28 -22 -46.5t-52 -18.5h-1159q-29 0 -50.5 18.5t-21.5 46.5z" />
<glyph unicode="&#x2018;" horiz-adv-x="552" d="M47 1442q-15 30 2 55t57 25h154q88 0 107 -52l135 -344q12 -30 -5.5 -52.5t-56.5 -22.5h-129q-29 0 -57 16t-37 37h2z" />
<glyph unicode="&#x2019;" horiz-adv-x="552" d="M49 1126l135 344q19 52 107 52h153q40 0 57.5 -25t2.5 -55l-172 -338h2q-9 -21 -37 -37t-57 -16h-129q-39 0 -56.5 22.5t-5.5 52.5z" />
<glyph unicode="&#x201a;" horiz-adv-x="544" d="M47 0l135 344q19 51 107 51h153q40 0 57.5 -25t2.5 -55l-172 -338h2q-9 -21 -37 -37t-57 -16h-129q-39 0 -56.5 23t-5.5 53z" />
<glyph unicode="&#x201c;" horiz-adv-x="974" d="M47 1442q-15 30 2 55t57 25h154q88 0 107 -52l135 -344q12 -30 -5.5 -52.5t-56.5 -22.5h-129q-29 0 -57 16t-37 37h2zM471 1442q-15 30 2 55t57 25h154q88 0 107 -52l135 -344q12 -30 -5.5 -52.5t-56.5 -22.5h-129q-29 0 -57 16t-37 37h2z" />
<glyph unicode="&#x201d;" horiz-adv-x="974" d="M49 1126l135 344q19 52 107 52h153q38 0 55.5 -25.5t4.5 -54.5l-172 -338h2q-9 -21 -37 -37t-57 -16h-129q-39 0 -56.5 22.5t-5.5 52.5zM473 1126l135 344q19 52 107 52h153q40 0 57.5 -25t2.5 -55l-172 -338h2q-9 -21 -37 -37t-57 -16h-129q-39 0 -56.5 22.5t-5.5 52.5z " />
<glyph unicode="&#x201e;" horiz-adv-x="952" d="M47 0l135 344q19 51 107 51h153q40 0 57.5 -25t2.5 -55l-172 -338h2q-9 -21 -37 -37t-57 -16h-129q-39 0 -56.5 23t-5.5 53zM453 0l135 344q19 51 106 51h154q38 0 55 -25.5t4 -54.5l-172 -338h2q-9 -21 -37 -37t-57 -16h-129q-39 0 -56 23t-5 53z" />
<glyph unicode="&#x2022;" horiz-adv-x="858" d="M123 705q0 35 1.5 58.5t8 56.5t18.5 55t34.5 46t54.5 38.5t80.5 24t109.5 9.5t109 -9.5t79.5 -24t54.5 -39t34.5 -46.5t18 -55t8 -56.5t1.5 -57.5q0 -36 -1 -58t-7 -56.5t-17.5 -56t-34 -46.5t-54 -39.5t-80.5 -24.5t-111 -10q-63 0 -112 10t-81 24t-54.5 39.5t-34 46.5 t-17.5 55.5t-7 57t-1 58.5z" />
<glyph unicode="&#x2026;" horiz-adv-x="1449" d="M113 63v199q0 24 21.5 43t53.5 19h189q31 0 53.5 -19t22.5 -43v-199q0 -28 -23 -45.5t-53 -17.5h-189q-31 0 -53 17.5t-22 45.5zM555 63v199q0 24 21.5 43t54.5 19h188q31 0 53.5 -19t22.5 -43v-199q0 -28 -23 -45.5t-53 -17.5h-188q-31 0 -53.5 17.5t-22.5 45.5zM995 63 v199q0 24 21.5 43t54.5 19h189q31 0 53 -19t22 -43v-199q0 -28 -23 -45.5t-52 -17.5h-189q-31 0 -53.5 17.5t-22.5 45.5z" />
<glyph unicode="&#x202f;" horiz-adv-x="430" />
<glyph unicode="&#x2039;" horiz-adv-x="784" d="M55 561q0 22 25 53l270 349q31 34 88 34h168q31 0 54.5 -11.5t23.5 -37.5q0 -23 -33 -59l-245 -305q-17 -22 0 -41l245 -301q35 -38 35 -62q0 -27 -24 -39t-56 -12h-168q-36 0 -55.5 10.5t-40.5 34.5l-260 334q-27 27 -27 53z" />
<glyph unicode="&#x203a;" horiz-adv-x="784" d="M98 180q0 24 35 62l246 301q17 19 0 41l-246 305q-33 36 -33 59q0 26 23.5 37.5t54.5 11.5h168q57 0 88 -34l271 -349q24 -30 24 -53q0 -26 -27 -53l-260 -334q-21 -24 -41 -34.5t-55 -10.5h-168q-32 0 -56 12t-24 39z" />
<glyph unicode="&#x205f;" horiz-adv-x="538" />
<glyph unicode="&#x20ac;" horiz-adv-x="1208" d="M47 537q3 7 19 43t22 53q29 63 102 63h66v103h-115q-94 0 -67 78q3 7 18 43.5t21 54.5q12 27 40.5 44t61.5 17h35v252q0 93 67 163.5t177 70.5h591q31 0 51.5 -19t20.5 -45v-141q0 -28 -22.5 -46t-49.5 -18h-477q-13 0 -20.5 -12t-7.5 -27v-178h421q16 0 24 -0.5t21 -4 t17.5 -10.5t5 -21t-7.5 -35l-43 -95q-19 -32 -48.5 -51.5t-58.5 -19.5h-331v-103h387q15 0 23 -0.5t21 -4t17.5 -10.5t5 -22t-7.5 -36l-49 -107q-12 -26 -39.5 -41.5t-60.5 -15.5h-297v-152q0 -16 7.5 -27.5t20.5 -11.5h477q31 0 51.5 -18.5t20.5 -44.5v-142 q0 -28 -22.5 -45.5t-49.5 -17.5h-591q-110 0 -174 69.5t-64 163.5v226h-143q-95 0 -66 78z" />
<glyph unicode="&#x2122;" horiz-adv-x="1634" d="M92 1401v63q0 23 12 33t43 10h660q68 0 102.5 -18.5t48.5 -56.5l156 -504l150 514q8 24 22 38.5t36.5 19.5t34 6t38.5 1h10q137 0 137 -94v-692q0 -25 -13.5 -35t-41.5 -10h-90q-34 0 -46 9.5t-12 35.5v385l-104 -352q-12 -38 -38.5 -54t-82.5 -16q-58 0 -84.5 16 t-38.5 54l-104 348v-381q0 -45 -56 -45h-92q-34 0 -45.5 9.5t-11.5 35.5v633h-162v-633q0 -25 -13.5 -35t-41.5 -10h-88q-31 0 -42 9.5t-11 35.5v633h-177q-31 0 -43 12t-12 35z" />
<glyph unicode="&#xe000;" horiz-adv-x="1126" d="M0 0v1126h1126v-1126h-1126z" />
</font>
</defs>
</svg>
